<?xml version="1.0" encoding="UTF-8" standalone="no"?>
<svg width="529.167mm" height="529.167mm"
 viewBox="0 0 1500 1500"
 xmlns="http://www.w3.org/2000/svg" xmlns:xlink="http://www.w3.org/1999/xlink"  version="1.2" baseProfile="tiny">
<title>Bizzare Labyrinth</title>
<desc>Time (seconds): 0
Iteration: 0
# Points: 16
f_b: 0.06
f_f: 0.2
f_a: 0.008
ar_clamp: 20
D: 1
sigma_l_j: 1
search_radius: 20
</desc>
<defs>
</defs>
<g fill="none" stroke="black" stroke-width="1" fill-rule="evenodd" stroke-linecap="square" stroke-linejoin="bevel" >

<g fill="none" stroke="#000000" stroke-opacity="1" stroke-width="1" stroke-linecap="square" stroke-linejoin="bevel" transform="matrix(1,0,0,1,0,0)"
font-family="Droid Sans" font-size="9.5" font-weight="400" font-style="normal" 
>
</g>

<g fill="none" stroke="#000000" stroke-opacity="1" stroke-width="1" stroke-linecap="square" stroke-linejoin="bevel" transform="matrix(1,0,0,1,0,0)"
font-family="Droid Sans" font-size="9.5" font-weight="400" font-style="normal" 
>
<polyline fill="none" vector-effect="none" points="749,885 787,855 " />
<polyline fill="none" vector-effect="none" points="787,855 825,824 " />
<polyline fill="none" vector-effect="none" points="825,824 855,786 " />
<polyline fill="none" vector-effect="none" points="855,786 885,748 " />
<polyline fill="none" vector-effect="none" points="885,748 855,711 " />
<polyline fill="none" vector-effect="none" points="855,711 824,675 " />
<polyline fill="none" vector-effect="none" points="824,675 787,645 " />
<polyline fill="none" vector-effect="none" points="787,645 749,615 " />
<polyline fill="none" vector-effect="none" points="749,615 712,645 " />
<polyline fill="none" vector-effect="none" points="712,645 675,675 " />
<polyline fill="none" vector-effect="none" points="675,675 645,712 " />
<polyline fill="none" vector-effect="none" points="645,712 615,750 " />
<polyline fill="none" vector-effect="none" points="615,750 645,787 " />
<polyline fill="none" vector-effect="none" points="645,787 675,824 " />
<polyline fill="none" vector-effect="none" points="675,824 712,855 " />
<polyline fill="none" vector-effect="none" points="712,855 749,885 " />
</g>
</g>
</svg>
