<?xml version="1.0" encoding="UTF-8" standalone="no"?>
<svg width="529.167mm" height="529.167mm"
 viewBox="0 0 1500 1500"
 xmlns="http://www.w3.org/2000/svg" xmlns:xlink="http://www.w3.org/1999/xlink"  version="1.2" baseProfile="tiny">
<title>Bizzare Labyrinth</title>
<desc>Time (seconds): 0
Iteration: 0
# Points: 16
f_b: 0.02
f_f: 0.2
f_a: 0.008
ar_clamp: 20
D: 1
sigma_l_j: 1
search_radius: 20
</desc>
<defs>
</defs>
<g fill="none" stroke="black" stroke-width="1" fill-rule="evenodd" stroke-linecap="square" stroke-linejoin="bevel" >

<g fill="none" stroke="#000000" stroke-opacity="1" stroke-width="1" stroke-linecap="square" stroke-linejoin="bevel" transform="matrix(1,0,0,1,0,0)"
font-family="Droid Sans" font-size="9.5" font-weight="400" font-style="normal" 
>
</g>

<g fill="none" stroke="#000000" stroke-opacity="1" stroke-width="1" stroke-linecap="square" stroke-linejoin="bevel" transform="matrix(1,0,0,1,0,0)"
font-family="Droid Sans" font-size="9.5" font-weight="400" font-style="normal" 
>
<polyline fill="none" vector-effect="none" points="750,884 787,854 " />
<polyline fill="none" vector-effect="none" points="787,854 824,825 " />
<polyline fill="none" vector-effect="none" points="824,825 854,787 " />
<polyline fill="none" vector-effect="none" points="854,787 884,749 " />
<polyline fill="none" vector-effect="none" points="884,749 854,712 " />
<polyline fill="none" vector-effect="none" points="854,712 824,674 " />
<polyline fill="none" vector-effect="none" points="824,674 787,644 " />
<polyline fill="none" vector-effect="none" points="787,644 749,614 " />
<polyline fill="none" vector-effect="none" points="749,614 712,644 " />
<polyline fill="none" vector-effect="none" points="712,644 675,674 " />
<polyline fill="none" vector-effect="none" points="675,674 645,712 " />
<polyline fill="none" vector-effect="none" points="645,712 614,750 " />
<polyline fill="none" vector-effect="none" points="614,750 644,787 " />
<polyline fill="none" vector-effect="none" points="644,787 674,825 " />
<polyline fill="none" vector-effect="none" points="674,825 712,854 " />
<polyline fill="none" vector-effect="none" points="712,854 750,884 " />
</g>
</g>
</svg>
