<?xml version="1.0" encoding="UTF-8" standalone="no"?>
<svg width="529.167mm" height="529.167mm"
 viewBox="0 0 1500 1500"
 xmlns="http://www.w3.org/2000/svg" xmlns:xlink="http://www.w3.org/1999/xlink"  version="1.2" baseProfile="tiny">
<title>Bizzare Labyrinth</title>
<desc>Time (seconds): 1.30261
Iteration: 500
# Points: 398
f_b: 0.02
f_f: 0.2
f_a: 0.008
ar_clamp: 20
D: 1
sigma_l_j: 1
search_radius: 20
</desc>
<defs>
</defs>
<g fill="none" stroke="black" stroke-width="1" fill-rule="evenodd" stroke-linecap="square" stroke-linejoin="bevel" >

<g fill="none" stroke="#000000" stroke-opacity="1" stroke-width="1" stroke-linecap="square" stroke-linejoin="bevel" transform="matrix(1,0,0,1,0,0)"
font-family="Droid Sans" font-size="9.5" font-weight="400" font-style="normal" 
>
</g>

<g fill="none" stroke="#000000" stroke-opacity="1" stroke-width="1" stroke-linecap="square" stroke-linejoin="bevel" transform="matrix(1,0,0,1,0,0)"
font-family="Droid Sans" font-size="9.5" font-weight="400" font-style="normal" 
>
<polyline fill="none" vector-effect="none" points="722,878 728,877 " />
<polyline fill="none" vector-effect="none" points="728,877 732,876 " />
<polyline fill="none" vector-effect="none" points="732,876 735,876 " />
<polyline fill="none" vector-effect="none" points="735,876 738,875 " />
<polyline fill="none" vector-effect="none" points="738,875 740,874 " />
<polyline fill="none" vector-effect="none" points="740,874 741,873 " />
<polyline fill="none" vector-effect="none" points="741,873 743,872 " />
<polyline fill="none" vector-effect="none" points="743,872 745,871 " />
<polyline fill="none" vector-effect="none" points="745,871 747,870 " />
<polyline fill="none" vector-effect="none" points="747,870 748,870 " />
<polyline fill="none" vector-effect="none" points="748,870 750,869 " />
<polyline fill="none" vector-effect="none" points="750,869 751,868 " />
<polyline fill="none" vector-effect="none" points="751,868 753,867 " />
<polyline fill="none" vector-effect="none" points="753,867 754,866 " />
<polyline fill="none" vector-effect="none" points="754,866 756,865 " />
<polyline fill="none" vector-effect="none" points="756,865 757,864 " />
<polyline fill="none" vector-effect="none" points="757,864 759,863 " />
<polyline fill="none" vector-effect="none" points="759,863 768,859 " />
<polyline fill="none" vector-effect="none" points="768,859 772,857 " />
<polyline fill="none" vector-effect="none" points="772,857 777,853 " />
<polyline fill="none" vector-effect="none" points="777,853 780,849 " />
<polyline fill="none" vector-effect="none" points="780,849 782,848 " />
<polyline fill="none" vector-effect="none" points="782,848 783,846 " />
<polyline fill="none" vector-effect="none" points="783,846 784,845 " />
<polyline fill="none" vector-effect="none" points="784,845 785,843 " />
<polyline fill="none" vector-effect="none" points="785,843 787,842 " />
<polyline fill="none" vector-effect="none" points="787,842 788,840 " />
<polyline fill="none" vector-effect="none" points="788,840 789,838 " />
<polyline fill="none" vector-effect="none" points="789,838 789,837 " />
<polyline fill="none" vector-effect="none" points="789,837 790,835 " />
<polyline fill="none" vector-effect="none" points="790,835 791,833 " />
<polyline fill="none" vector-effect="none" points="791,833 792,829 " />
<polyline fill="none" vector-effect="none" points="792,829 792,827 " />
<polyline fill="none" vector-effect="none" points="792,827 793,825 " />
<polyline fill="none" vector-effect="none" points="793,825 793,823 " />
<polyline fill="none" vector-effect="none" points="793,823 795,815 " />
<polyline fill="none" vector-effect="none" points="795,815 794,812 " />
<polyline fill="none" vector-effect="none" points="794,812 794,810 " />
<polyline fill="none" vector-effect="none" points="794,810 793,807 " />
<polyline fill="none" vector-effect="none" points="793,807 792,805 " />
<polyline fill="none" vector-effect="none" points="792,805 791,804 " />
<polyline fill="none" vector-effect="none" points="791,804 790,802 " />
<polyline fill="none" vector-effect="none" points="790,802 789,800 " />
<polyline fill="none" vector-effect="none" points="789,800 787,798 " />
<polyline fill="none" vector-effect="none" points="787,798 787,792 " />
<polyline fill="none" vector-effect="none" points="787,792 787,789 " />
<polyline fill="none" vector-effect="none" points="787,789 788,786 " />
<polyline fill="none" vector-effect="none" points="788,786 790,783 " />
<polyline fill="none" vector-effect="none" points="790,783 791,781 " />
<polyline fill="none" vector-effect="none" points="791,781 795,779 " />
<polyline fill="none" vector-effect="none" points="795,779 797,779 " />
<polyline fill="none" vector-effect="none" points="797,779 799,780 " />
<polyline fill="none" vector-effect="none" points="799,780 803,782 " />
<polyline fill="none" vector-effect="none" points="803,782 806,789 " />
<polyline fill="none" vector-effect="none" points="806,789 810,793 " />
<polyline fill="none" vector-effect="none" points="810,793 812,793 " />
<polyline fill="none" vector-effect="none" points="812,793 815,793 " />
<polyline fill="none" vector-effect="none" points="815,793 817,790 " />
<polyline fill="none" vector-effect="none" points="817,790 818,786 " />
<polyline fill="none" vector-effect="none" points="818,786 817,784 " />
<polyline fill="none" vector-effect="none" points="817,784 817,782 " />
<polyline fill="none" vector-effect="none" points="817,782 814,779 " />
<polyline fill="none" vector-effect="none" points="814,779 813,778 " />
<polyline fill="none" vector-effect="none" points="813,778 811,777 " />
<polyline fill="none" vector-effect="none" points="811,777 810,775 " />
<polyline fill="none" vector-effect="none" points="810,775 809,774 " />
<polyline fill="none" vector-effect="none" points="809,774 805,772 " />
<polyline fill="none" vector-effect="none" points="805,772 804,771 " />
<polyline fill="none" vector-effect="none" points="804,771 803,771 " />
<polyline fill="none" vector-effect="none" points="803,771 799,770 " />
<polyline fill="none" vector-effect="none" points="799,770 797,769 " />
<polyline fill="none" vector-effect="none" points="797,769 796,769 " />
<polyline fill="none" vector-effect="none" points="796,769 794,768 " />
<polyline fill="none" vector-effect="none" points="794,768 793,768 " />
<polyline fill="none" vector-effect="none" points="793,768 789,765 " />
<polyline fill="none" vector-effect="none" points="789,765 787,764 " />
<polyline fill="none" vector-effect="none" points="787,764 785,764 " />
<polyline fill="none" vector-effect="none" points="785,764 783,766 " />
<polyline fill="none" vector-effect="none" points="783,766 780,767 " />
<polyline fill="none" vector-effect="none" points="780,767 776,768 " />
<polyline fill="none" vector-effect="none" points="776,768 775,769 " />
<polyline fill="none" vector-effect="none" points="775,769 773,769 " />
<polyline fill="none" vector-effect="none" points="773,769 769,769 " />
<polyline fill="none" vector-effect="none" points="769,769 765,767 " />
<polyline fill="none" vector-effect="none" points="765,767 762,764 " />
<polyline fill="none" vector-effect="none" points="762,764 761,760 " />
<polyline fill="none" vector-effect="none" points="761,760 764,755 " />
<polyline fill="none" vector-effect="none" points="764,755 766,753 " />
<polyline fill="none" vector-effect="none" points="766,753 769,752 " />
<polyline fill="none" vector-effect="none" points="769,752 770,751 " />
<polyline fill="none" vector-effect="none" points="770,751 772,750 " />
<polyline fill="none" vector-effect="none" points="772,750 772,748 " />
<polyline fill="none" vector-effect="none" points="772,748 773,747 " />
<polyline fill="none" vector-effect="none" points="773,747 772,745 " />
<polyline fill="none" vector-effect="none" points="772,745 771,744 " />
<polyline fill="none" vector-effect="none" points="771,744 767,740 " />
<polyline fill="none" vector-effect="none" points="767,740 763,741 " />
<polyline fill="none" vector-effect="none" points="763,741 761,741 " />
<polyline fill="none" vector-effect="none" points="761,741 759,742 " />
<polyline fill="none" vector-effect="none" points="759,742 757,745 " />
<polyline fill="none" vector-effect="none" points="757,745 755,748 " />
<polyline fill="none" vector-effect="none" points="755,748 754,751 " />
<polyline fill="none" vector-effect="none" points="754,751 752,753 " />
<polyline fill="none" vector-effect="none" points="752,753 751,754 " />
<polyline fill="none" vector-effect="none" points="751,754 746,759 " />
<polyline fill="none" vector-effect="none" points="746,759 745,761 " />
<polyline fill="none" vector-effect="none" points="745,761 743,762 " />
<polyline fill="none" vector-effect="none" points="743,762 740,764 " />
<polyline fill="none" vector-effect="none" points="740,764 739,765 " />
<polyline fill="none" vector-effect="none" points="739,765 738,767 " />
<polyline fill="none" vector-effect="none" points="738,767 736,770 " />
<polyline fill="none" vector-effect="none" points="736,770 735,773 " />
<polyline fill="none" vector-effect="none" points="735,773 732,773 " />
<polyline fill="none" vector-effect="none" points="732,773 729,773 " />
<polyline fill="none" vector-effect="none" points="729,773 726,772 " />
<polyline fill="none" vector-effect="none" points="726,772 724,768 " />
<polyline fill="none" vector-effect="none" points="724,768 724,765 " />
<polyline fill="none" vector-effect="none" points="724,765 724,762 " />
<polyline fill="none" vector-effect="none" points="724,762 726,762 " />
<polyline fill="none" vector-effect="none" points="726,762 727,761 " />
<polyline fill="none" vector-effect="none" points="727,761 729,760 " />
<polyline fill="none" vector-effect="none" points="729,760 730,759 " />
<polyline fill="none" vector-effect="none" points="730,759 732,759 " />
<polyline fill="none" vector-effect="none" points="732,759 733,758 " />
<polyline fill="none" vector-effect="none" points="733,758 735,756 " />
<polyline fill="none" vector-effect="none" points="735,756 737,754 " />
<polyline fill="none" vector-effect="none" points="737,754 739,752 " />
<polyline fill="none" vector-effect="none" points="739,752 741,751 " />
<polyline fill="none" vector-effect="none" points="741,751 746,746 " />
<polyline fill="none" vector-effect="none" points="746,746 748,742 " />
<polyline fill="none" vector-effect="none" points="748,742 749,741 " />
<polyline fill="none" vector-effect="none" points="749,741 749,740 " />
<polyline fill="none" vector-effect="none" points="749,740 750,735 " />
<polyline fill="none" vector-effect="none" points="750,735 750,733 " />
<polyline fill="none" vector-effect="none" points="750,733 750,731 " />
<polyline fill="none" vector-effect="none" points="750,731 750,728 " />
<polyline fill="none" vector-effect="none" points="750,728 752,725 " />
<polyline fill="none" vector-effect="none" points="752,725 754,722 " />
<polyline fill="none" vector-effect="none" points="754,722 757,722 " />
<polyline fill="none" vector-effect="none" points="757,722 760,721 " />
<polyline fill="none" vector-effect="none" points="760,721 764,720 " />
<polyline fill="none" vector-effect="none" points="764,720 771,717 " />
<polyline fill="none" vector-effect="none" points="771,717 776,716 " />
<polyline fill="none" vector-effect="none" points="776,716 779,715 " />
<polyline fill="none" vector-effect="none" points="779,715 783,714 " />
<polyline fill="none" vector-effect="none" points="783,714 786,711 " />
<polyline fill="none" vector-effect="none" points="786,711 787,705 " />
<polyline fill="none" vector-effect="none" points="787,705 784,700 " />
<polyline fill="none" vector-effect="none" points="784,700 782,697 " />
<polyline fill="none" vector-effect="none" points="782,697 778,698 " />
<polyline fill="none" vector-effect="none" points="778,698 776,699 " />
<polyline fill="none" vector-effect="none" points="776,699 775,700 " />
<polyline fill="none" vector-effect="none" points="775,700 773,701 " />
<polyline fill="none" vector-effect="none" points="773,701 772,703 " />
<polyline fill="none" vector-effect="none" points="772,703 767,708 " />
<polyline fill="none" vector-effect="none" points="767,708 766,709 " />
<polyline fill="none" vector-effect="none" points="766,709 764,709 " />
<polyline fill="none" vector-effect="none" points="764,709 760,710 " />
<polyline fill="none" vector-effect="none" points="760,710 757,711 " />
<polyline fill="none" vector-effect="none" points="757,711 753,711 " />
<polyline fill="none" vector-effect="none" points="753,711 751,710 " />
<polyline fill="none" vector-effect="none" points="751,710 748,709 " />
<polyline fill="none" vector-effect="none" points="748,709 748,707 " />
<polyline fill="none" vector-effect="none" points="748,707 748,706 " />
<polyline fill="none" vector-effect="none" points="748,706 749,703 " />
<polyline fill="none" vector-effect="none" points="749,703 751,701 " />
<polyline fill="none" vector-effect="none" points="751,701 754,699 " />
<polyline fill="none" vector-effect="none" points="754,699 758,698 " />
<polyline fill="none" vector-effect="none" points="758,698 761,697 " />
<polyline fill="none" vector-effect="none" points="761,697 763,696 " />
<polyline fill="none" vector-effect="none" points="763,696 765,695 " />
<polyline fill="none" vector-effect="none" points="765,695 768,694 " />
<polyline fill="none" vector-effect="none" points="768,694 771,691 " />
<polyline fill="none" vector-effect="none" points="771,691 774,690 " />
<polyline fill="none" vector-effect="none" points="774,690 776,689 " />
<polyline fill="none" vector-effect="none" points="776,689 777,688 " />
<polyline fill="none" vector-effect="none" points="777,688 779,687 " />
<polyline fill="none" vector-effect="none" points="779,687 780,687 " />
<polyline fill="none" vector-effect="none" points="780,687 782,685 " />
<polyline fill="none" vector-effect="none" points="782,685 783,684 " />
<polyline fill="none" vector-effect="none" points="783,684 785,683 " />
<polyline fill="none" vector-effect="none" points="785,683 787,682 " />
<polyline fill="none" vector-effect="none" points="787,682 788,681 " />
<polyline fill="none" vector-effect="none" points="788,681 789,679 " />
<polyline fill="none" vector-effect="none" points="789,679 790,678 " />
<polyline fill="none" vector-effect="none" points="790,678 792,676 " />
<polyline fill="none" vector-effect="none" points="792,676 793,675 " />
<polyline fill="none" vector-effect="none" points="793,675 795,674 " />
<polyline fill="none" vector-effect="none" points="795,674 796,673 " />
<polyline fill="none" vector-effect="none" points="796,673 798,672 " />
<polyline fill="none" vector-effect="none" points="798,672 799,671 " />
<polyline fill="none" vector-effect="none" points="799,671 801,669 " />
<polyline fill="none" vector-effect="none" points="801,669 802,668 " />
<polyline fill="none" vector-effect="none" points="802,668 803,666 " />
<polyline fill="none" vector-effect="none" points="803,666 805,664 " />
<polyline fill="none" vector-effect="none" points="805,664 806,661 " />
<polyline fill="none" vector-effect="none" points="806,661 807,655 " />
<polyline fill="none" vector-effect="none" points="807,655 805,653 " />
<polyline fill="none" vector-effect="none" points="805,653 804,651 " />
<polyline fill="none" vector-effect="none" points="804,651 802,651 " />
<polyline fill="none" vector-effect="none" points="802,651 800,650 " />
<polyline fill="none" vector-effect="none" points="800,650 798,650 " />
<polyline fill="none" vector-effect="none" points="798,650 797,650 " />
<polyline fill="none" vector-effect="none" points="797,650 794,651 " />
<polyline fill="none" vector-effect="none" points="794,651 791,652 " />
<polyline fill="none" vector-effect="none" points="791,652 789,654 " />
<polyline fill="none" vector-effect="none" points="789,654 788,655 " />
<polyline fill="none" vector-effect="none" points="788,655 787,657 " />
<polyline fill="none" vector-effect="none" points="787,657 786,659 " />
<polyline fill="none" vector-effect="none" points="786,659 786,663 " />
<polyline fill="none" vector-effect="none" points="786,663 786,665 " />
<polyline fill="none" vector-effect="none" points="786,665 786,667 " />
<polyline fill="none" vector-effect="none" points="786,667 785,669 " />
<polyline fill="none" vector-effect="none" points="785,669 784,670 " />
<polyline fill="none" vector-effect="none" points="784,670 781,674 " />
<polyline fill="none" vector-effect="none" points="781,674 780,675 " />
<polyline fill="none" vector-effect="none" points="780,675 779,676 " />
<polyline fill="none" vector-effect="none" points="779,676 775,678 " />
<polyline fill="none" vector-effect="none" points="775,678 769,682 " />
<polyline fill="none" vector-effect="none" points="769,682 767,683 " />
<polyline fill="none" vector-effect="none" points="767,683 765,684 " />
<polyline fill="none" vector-effect="none" points="765,684 762,685 " />
<polyline fill="none" vector-effect="none" points="762,685 759,687 " />
<polyline fill="none" vector-effect="none" points="759,687 757,688 " />
<polyline fill="none" vector-effect="none" points="757,688 756,689 " />
<polyline fill="none" vector-effect="none" points="756,689 754,689 " />
<polyline fill="none" vector-effect="none" points="754,689 751,689 " />
<polyline fill="none" vector-effect="none" points="751,689 748,689 " />
<polyline fill="none" vector-effect="none" points="748,689 744,686 " />
<polyline fill="none" vector-effect="none" points="744,686 739,684 " />
<polyline fill="none" vector-effect="none" points="739,684 738,685 " />
<polyline fill="none" vector-effect="none" points="738,685 736,686 " />
<polyline fill="none" vector-effect="none" points="736,686 735,687 " />
<polyline fill="none" vector-effect="none" points="735,687 733,688 " />
<polyline fill="none" vector-effect="none" points="733,688 731,688 " />
<polyline fill="none" vector-effect="none" points="731,688 730,689 " />
<polyline fill="none" vector-effect="none" points="730,689 722,691 " />
<polyline fill="none" vector-effect="none" points="722,691 721,689 " />
<polyline fill="none" vector-effect="none" points="721,689 719,688 " />
<polyline fill="none" vector-effect="none" points="719,688 718,684 " />
<polyline fill="none" vector-effect="none" points="718,684 721,680 " />
<polyline fill="none" vector-effect="none" points="721,680 722,676 " />
<polyline fill="none" vector-effect="none" points="722,676 720,674 " />
<polyline fill="none" vector-effect="none" points="720,674 719,672 " />
<polyline fill="none" vector-effect="none" points="719,672 717,672 " />
<polyline fill="none" vector-effect="none" points="717,672 715,671 " />
<polyline fill="none" vector-effect="none" points="715,671 713,672 " />
<polyline fill="none" vector-effect="none" points="713,672 712,672 " />
<polyline fill="none" vector-effect="none" points="712,672 710,673 " />
<polyline fill="none" vector-effect="none" points="710,673 708,675 " />
<polyline fill="none" vector-effect="none" points="708,675 707,676 " />
<polyline fill="none" vector-effect="none" points="707,676 706,677 " />
<polyline fill="none" vector-effect="none" points="706,677 704,679 " />
<polyline fill="none" vector-effect="none" points="704,679 703,680 " />
<polyline fill="none" vector-effect="none" points="703,680 702,681 " />
<polyline fill="none" vector-effect="none" points="702,681 700,683 " />
<polyline fill="none" vector-effect="none" points="700,683 699,684 " />
<polyline fill="none" vector-effect="none" points="699,684 697,685 " />
<polyline fill="none" vector-effect="none" points="697,685 696,686 " />
<polyline fill="none" vector-effect="none" points="696,686 695,687 " />
<polyline fill="none" vector-effect="none" points="695,687 693,689 " />
<polyline fill="none" vector-effect="none" points="693,689 690,690 " />
<polyline fill="none" vector-effect="none" points="690,690 689,692 " />
<polyline fill="none" vector-effect="none" points="689,692 687,693 " />
<polyline fill="none" vector-effect="none" points="687,693 686,694 " />
<polyline fill="none" vector-effect="none" points="686,694 684,695 " />
<polyline fill="none" vector-effect="none" points="684,695 682,695 " />
<polyline fill="none" vector-effect="none" points="682,695 680,695 " />
<polyline fill="none" vector-effect="none" points="680,695 677,694 " />
<polyline fill="none" vector-effect="none" points="677,694 674,692 " />
<polyline fill="none" vector-effect="none" points="674,692 671,690 " />
<polyline fill="none" vector-effect="none" points="671,690 668,689 " />
<polyline fill="none" vector-effect="none" points="668,689 664,687 " />
<polyline fill="none" vector-effect="none" points="664,687 657,681 " />
<polyline fill="none" vector-effect="none" points="657,681 654,680 " />
<polyline fill="none" vector-effect="none" points="654,680 654,678 " />
<polyline fill="none" vector-effect="none" points="654,678 654,676 " />
<polyline fill="none" vector-effect="none" points="654,676 654,674 " />
<polyline fill="none" vector-effect="none" points="654,674 655,672 " />
<polyline fill="none" vector-effect="none" points="655,672 656,670 " />
<polyline fill="none" vector-effect="none" points="656,670 657,669 " />
<polyline fill="none" vector-effect="none" points="657,669 658,667 " />
<polyline fill="none" vector-effect="none" points="658,667 660,664 " />
<polyline fill="none" vector-effect="none" points="660,664 661,662 " />
<polyline fill="none" vector-effect="none" points="661,662 661,660 " />
<polyline fill="none" vector-effect="none" points="661,660 660,659 " />
<polyline fill="none" vector-effect="none" points="660,659 660,657 " />
<polyline fill="none" vector-effect="none" points="660,657 658,656 " />
<polyline fill="none" vector-effect="none" points="658,656 656,655 " />
<polyline fill="none" vector-effect="none" points="656,655 654,654 " />
<polyline fill="none" vector-effect="none" points="654,654 652,654 " />
<polyline fill="none" vector-effect="none" points="652,654 650,654 " />
<polyline fill="none" vector-effect="none" points="650,654 649,653 " />
<polyline fill="none" vector-effect="none" points="649,653 647,653 " />
<polyline fill="none" vector-effect="none" points="647,653 645,653 " />
<polyline fill="none" vector-effect="none" points="645,653 642,656 " />
<polyline fill="none" vector-effect="none" points="642,656 640,658 " />
<polyline fill="none" vector-effect="none" points="640,658 640,659 " />
<polyline fill="none" vector-effect="none" points="640,659 640,661 " />
<polyline fill="none" vector-effect="none" points="640,661 640,663 " />
<polyline fill="none" vector-effect="none" points="640,663 641,665 " />
<polyline fill="none" vector-effect="none" points="641,665 642,666 " />
<polyline fill="none" vector-effect="none" points="642,666 643,668 " />
<polyline fill="none" vector-effect="none" points="643,668 644,672 " />
<polyline fill="none" vector-effect="none" points="644,672 644,675 " />
<polyline fill="none" vector-effect="none" points="644,675 644,676 " />
<polyline fill="none" vector-effect="none" points="644,676 644,678 " />
<polyline fill="none" vector-effect="none" points="644,678 644,683 " />
<polyline fill="none" vector-effect="none" points="644,683 643,687 " />
<polyline fill="none" vector-effect="none" points="643,687 642,689 " />
<polyline fill="none" vector-effect="none" points="642,689 642,690 " />
<polyline fill="none" vector-effect="none" points="642,690 640,695 " />
<polyline fill="none" vector-effect="none" points="640,695 639,696 " />
<polyline fill="none" vector-effect="none" points="639,696 639,698 " />
<polyline fill="none" vector-effect="none" points="639,698 638,700 " />
<polyline fill="none" vector-effect="none" points="638,700 637,702 " />
<polyline fill="none" vector-effect="none" points="637,702 637,704 " />
<polyline fill="none" vector-effect="none" points="637,704 637,705 " />
<polyline fill="none" vector-effect="none" points="637,705 637,707 " />
<polyline fill="none" vector-effect="none" points="637,707 636,710 " />
<polyline fill="none" vector-effect="none" points="636,710 635,713 " />
<polyline fill="none" vector-effect="none" points="635,713 634,717 " />
<polyline fill="none" vector-effect="none" points="634,717 633,721 " />
<polyline fill="none" vector-effect="none" points="633,721 632,723 " />
<polyline fill="none" vector-effect="none" points="632,723 631,725 " />
<polyline fill="none" vector-effect="none" points="631,725 630,728 " />
<polyline fill="none" vector-effect="none" points="630,728 629,731 " />
<polyline fill="none" vector-effect="none" points="629,731 629,734 " />
<polyline fill="none" vector-effect="none" points="629,734 629,736 " />
<polyline fill="none" vector-effect="none" points="629,736 628,741 " />
<polyline fill="none" vector-effect="none" points="628,741 627,745 " />
<polyline fill="none" vector-effect="none" points="627,745 627,749 " />
<polyline fill="none" vector-effect="none" points="627,749 627,753 " />
<polyline fill="none" vector-effect="none" points="627,753 627,756 " />
<polyline fill="none" vector-effect="none" points="627,756 627,758 " />
<polyline fill="none" vector-effect="none" points="627,758 627,760 " />
<polyline fill="none" vector-effect="none" points="627,760 627,762 " />
<polyline fill="none" vector-effect="none" points="627,762 627,765 " />
<polyline fill="none" vector-effect="none" points="627,765 626,770 " />
<polyline fill="none" vector-effect="none" points="626,770 627,772 " />
<polyline fill="none" vector-effect="none" points="627,772 627,774 " />
<polyline fill="none" vector-effect="none" points="627,774 627,779 " />
<polyline fill="none" vector-effect="none" points="627,779 628,782 " />
<polyline fill="none" vector-effect="none" points="628,782 627,787 " />
<polyline fill="none" vector-effect="none" points="627,787 628,792 " />
<polyline fill="none" vector-effect="none" points="628,792 628,797 " />
<polyline fill="none" vector-effect="none" points="628,797 629,798 " />
<polyline fill="none" vector-effect="none" points="629,798 629,800 " />
<polyline fill="none" vector-effect="none" points="629,800 629,804 " />
<polyline fill="none" vector-effect="none" points="629,804 630,808 " />
<polyline fill="none" vector-effect="none" points="630,808 629,811 " />
<polyline fill="none" vector-effect="none" points="629,811 630,812 " />
<polyline fill="none" vector-effect="none" points="630,812 631,814 " />
<polyline fill="none" vector-effect="none" points="631,814 632,817 " />
<polyline fill="none" vector-effect="none" points="632,817 633,818 " />
<polyline fill="none" vector-effect="none" points="633,818 634,819 " />
<polyline fill="none" vector-effect="none" points="634,819 636,820 " />
<polyline fill="none" vector-effect="none" points="636,820 636,821 " />
<polyline fill="none" vector-effect="none" points="636,821 637,823 " />
<polyline fill="none" vector-effect="none" points="637,823 641,826 " />
<polyline fill="none" vector-effect="none" points="641,826 642,829 " />
<polyline fill="none" vector-effect="none" points="642,829 643,832 " />
<polyline fill="none" vector-effect="none" points="643,832 644,835 " />
<polyline fill="none" vector-effect="none" points="644,835 645,838 " />
<polyline fill="none" vector-effect="none" points="645,838 646,839 " />
<polyline fill="none" vector-effect="none" points="646,839 647,841 " />
<polyline fill="none" vector-effect="none" points="647,841 648,846 " />
<polyline fill="none" vector-effect="none" points="648,846 649,848 " />
<polyline fill="none" vector-effect="none" points="649,848 650,852 " />
<polyline fill="none" vector-effect="none" points="650,852 651,856 " />
<polyline fill="none" vector-effect="none" points="651,856 653,859 " />
<polyline fill="none" vector-effect="none" points="653,859 654,863 " />
<polyline fill="none" vector-effect="none" points="654,863 656,866 " />
<polyline fill="none" vector-effect="none" points="656,866 656,870 " />
<polyline fill="none" vector-effect="none" points="656,870 658,874 " />
<polyline fill="none" vector-effect="none" points="658,874 661,877 " />
<polyline fill="none" vector-effect="none" points="661,877 663,878 " />
<polyline fill="none" vector-effect="none" points="663,878 664,879 " />
<polyline fill="none" vector-effect="none" points="664,879 665,879 " />
<polyline fill="none" vector-effect="none" points="665,879 667,880 " />
<polyline fill="none" vector-effect="none" points="667,880 669,880 " />
<polyline fill="none" vector-effect="none" points="669,880 670,880 " />
<polyline fill="none" vector-effect="none" points="670,880 673,880 " />
<polyline fill="none" vector-effect="none" points="673,880 675,880 " />
<polyline fill="none" vector-effect="none" points="675,880 679,879 " />
<polyline fill="none" vector-effect="none" points="679,879 683,878 " />
<polyline fill="none" vector-effect="none" points="683,878 686,877 " />
<polyline fill="none" vector-effect="none" points="686,877 688,876 " />
<polyline fill="none" vector-effect="none" points="688,876 693,874 " />
<polyline fill="none" vector-effect="none" points="693,874 695,874 " />
<polyline fill="none" vector-effect="none" points="695,874 698,873 " />
<polyline fill="none" vector-effect="none" points="698,873 703,873 " />
<polyline fill="none" vector-effect="none" points="703,873 707,874 " />
<polyline fill="none" vector-effect="none" points="707,874 709,875 " />
<polyline fill="none" vector-effect="none" points="709,875 711,875 " />
<polyline fill="none" vector-effect="none" points="711,875 714,876 " />
<polyline fill="none" vector-effect="none" points="714,876 716,877 " />
<polyline fill="none" vector-effect="none" points="716,877 722,878 " />
</g>
</g>
</svg>
