<?xml version="1.0" encoding="UTF-8" standalone="no"?>
<svg width="529.167mm" height="529.167mm"
 viewBox="0 0 1500 1500"
 xmlns="http://www.w3.org/2000/svg" xmlns:xlink="http://www.w3.org/1999/xlink"  version="1.2" baseProfile="tiny">
<title>Bizzare Labyrinth</title>
<desc>Time (seconds): 5.80745
Iteration: 0
# Points: 16
f_b: 0.005
f_f: 0.1
f_a: 0.004
ar_clamp: 20
D: 1
sigma_l_j: 1
search_radius: 20
</desc>
<defs>
</defs>
<g fill="none" stroke="black" stroke-width="1" fill-rule="evenodd" stroke-linecap="square" stroke-linejoin="bevel" >

<g fill="none" stroke="#000000" stroke-opacity="1" stroke-width="1" stroke-linecap="square" stroke-linejoin="bevel" transform="matrix(1,0,0,1,0,0)"
font-family="Droid Sans" font-size="9.5" font-weight="400" font-style="normal" 
>
</g>

<g fill="none" stroke="#000000" stroke-opacity="1" stroke-width="1" stroke-linecap="square" stroke-linejoin="bevel" transform="matrix(1,0,0,1,0,0)"
font-family="Droid Sans" font-size="9.5" font-weight="400" font-style="normal" 
>
<polyline fill="none" vector-effect="none" points="750,892 787,858 " />
<polyline fill="none" vector-effect="none" points="787,858 825,824 " />
<polyline fill="none" vector-effect="none" points="825,824 858,787 " />
<polyline fill="none" vector-effect="none" points="858,787 892,749 " />
<polyline fill="none" vector-effect="none" points="892,749 858,712 " />
<polyline fill="none" vector-effect="none" points="858,712 824,674 " />
<polyline fill="none" vector-effect="none" points="824,674 787,641 " />
<polyline fill="none" vector-effect="none" points="787,641 750,607 " />
<polyline fill="none" vector-effect="none" points="750,607 712,641 " />
<polyline fill="none" vector-effect="none" points="712,641 674,674 " />
<polyline fill="none" vector-effect="none" points="674,674 641,712 " />
<polyline fill="none" vector-effect="none" points="641,712 607,750 " />
<polyline fill="none" vector-effect="none" points="607,750 641,787 " />
<polyline fill="none" vector-effect="none" points="641,787 675,824 " />
<polyline fill="none" vector-effect="none" points="675,824 712,858 " />
<polyline fill="none" vector-effect="none" points="712,858 750,892 " />
</g>
</g>
</svg>
