<?xml version="1.0" encoding="UTF-8" standalone="no"?>
<svg width="529.167mm" height="529.167mm"
 viewBox="0 0 1500 1500"
 xmlns="http://www.w3.org/2000/svg" xmlns:xlink="http://www.w3.org/1999/xlink"  version="1.2" baseProfile="tiny">
<title>Bizzare Labyrinth</title>
<desc>Time (seconds): 1.42876
Iteration: 500
# Points: 409
f_b: 0.005
f_f: 0.1
f_a: 0.004
ar_clamp: 20
D: 1
sigma_l_j: 1
search_radius: 20
</desc>
<defs>
</defs>
<g fill="none" stroke="black" stroke-width="1" fill-rule="evenodd" stroke-linecap="square" stroke-linejoin="bevel" >

<g fill="none" stroke="#000000" stroke-opacity="1" stroke-width="1" stroke-linecap="square" stroke-linejoin="bevel" transform="matrix(1,0,0,1,0,0)"
font-family="Droid Sans" font-size="9.5" font-weight="400" font-style="normal" 
>
</g>

<g fill="none" stroke="#000000" stroke-opacity="1" stroke-width="1" stroke-linecap="square" stroke-linejoin="bevel" transform="matrix(1,0,0,1,0,0)"
font-family="Droid Sans" font-size="9.5" font-weight="400" font-style="normal" 
>
<polyline fill="none" vector-effect="none" points="680,669 677,669 " />
<polyline fill="none" vector-effect="none" points="677,669 673,668 " />
<polyline fill="none" vector-effect="none" points="673,668 670,669 " />
<polyline fill="none" vector-effect="none" points="670,669 666,671 " />
<polyline fill="none" vector-effect="none" points="666,671 664,675 " />
<polyline fill="none" vector-effect="none" points="664,675 663,678 " />
<polyline fill="none" vector-effect="none" points="663,678 663,680 " />
<polyline fill="none" vector-effect="none" points="663,680 663,682 " />
<polyline fill="none" vector-effect="none" points="663,682 664,684 " />
<polyline fill="none" vector-effect="none" points="664,684 664,685 " />
<polyline fill="none" vector-effect="none" points="664,685 665,690 " />
<polyline fill="none" vector-effect="none" points="665,690 662,698 " />
<polyline fill="none" vector-effect="none" points="662,698 661,699 " />
<polyline fill="none" vector-effect="none" points="661,699 660,701 " />
<polyline fill="none" vector-effect="none" points="660,701 657,708 " />
<polyline fill="none" vector-effect="none" points="657,708 655,709 " />
<polyline fill="none" vector-effect="none" points="655,709 653,710 " />
<polyline fill="none" vector-effect="none" points="653,710 651,712 " />
<polyline fill="none" vector-effect="none" points="651,712 649,712 " />
<polyline fill="none" vector-effect="none" points="649,712 647,712 " />
<polyline fill="none" vector-effect="none" points="647,712 644,709 " />
<polyline fill="none" vector-effect="none" points="644,709 643,707 " />
<polyline fill="none" vector-effect="none" points="643,707 642,705 " />
<polyline fill="none" vector-effect="none" points="642,705 636,702 " />
<polyline fill="none" vector-effect="none" points="636,702 634,701 " />
<polyline fill="none" vector-effect="none" points="634,701 631,699 " />
<polyline fill="none" vector-effect="none" points="631,699 628,697 " />
<polyline fill="none" vector-effect="none" points="628,697 625,699 " />
<polyline fill="none" vector-effect="none" points="625,699 622,702 " />
<polyline fill="none" vector-effect="none" points="622,702 621,706 " />
<polyline fill="none" vector-effect="none" points="621,706 621,707 " />
<polyline fill="none" vector-effect="none" points="621,707 622,709 " />
<polyline fill="none" vector-effect="none" points="622,709 625,711 " />
<polyline fill="none" vector-effect="none" points="625,711 629,713 " />
<polyline fill="none" vector-effect="none" points="629,713 631,713 " />
<polyline fill="none" vector-effect="none" points="631,713 634,712 " />
<polyline fill="none" vector-effect="none" points="634,712 635,715 " />
<polyline fill="none" vector-effect="none" points="635,715 637,717 " />
<polyline fill="none" vector-effect="none" points="637,717 639,720 " />
<polyline fill="none" vector-effect="none" points="639,720 640,725 " />
<polyline fill="none" vector-effect="none" points="640,725 639,727 " />
<polyline fill="none" vector-effect="none" points="639,727 639,729 " />
<polyline fill="none" vector-effect="none" points="639,729 640,735 " />
<polyline fill="none" vector-effect="none" points="640,735 639,739 " />
<polyline fill="none" vector-effect="none" points="639,739 636,741 " />
<polyline fill="none" vector-effect="none" points="636,741 631,742 " />
<polyline fill="none" vector-effect="none" points="631,742 627,738 " />
<polyline fill="none" vector-effect="none" points="627,738 626,735 " />
<polyline fill="none" vector-effect="none" points="626,735 625,732 " />
<polyline fill="none" vector-effect="none" points="625,732 624,731 " />
<polyline fill="none" vector-effect="none" points="624,731 622,729 " />
<polyline fill="none" vector-effect="none" points="622,729 620,728 " />
<polyline fill="none" vector-effect="none" points="620,728 619,727 " />
<polyline fill="none" vector-effect="none" points="619,727 616,726 " />
<polyline fill="none" vector-effect="none" points="616,726 614,724 " />
<polyline fill="none" vector-effect="none" points="614,724 610,725 " />
<polyline fill="none" vector-effect="none" points="610,725 606,725 " />
<polyline fill="none" vector-effect="none" points="606,725 603,729 " />
<polyline fill="none" vector-effect="none" points="603,729 602,734 " />
<polyline fill="none" vector-effect="none" points="602,734 603,735 " />
<polyline fill="none" vector-effect="none" points="603,735 604,737 " />
<polyline fill="none" vector-effect="none" points="604,737 605,738 " />
<polyline fill="none" vector-effect="none" points="605,738 607,740 " />
<polyline fill="none" vector-effect="none" points="607,740 608,744 " />
<polyline fill="none" vector-effect="none" points="608,744 607,746 " />
<polyline fill="none" vector-effect="none" points="607,746 610,751 " />
<polyline fill="none" vector-effect="none" points="610,751 613,752 " />
<polyline fill="none" vector-effect="none" points="613,752 615,754 " />
<polyline fill="none" vector-effect="none" points="615,754 617,755 " />
<polyline fill="none" vector-effect="none" points="617,755 619,756 " />
<polyline fill="none" vector-effect="none" points="619,756 622,759 " />
<polyline fill="none" vector-effect="none" points="622,759 624,762 " />
<polyline fill="none" vector-effect="none" points="624,762 627,764 " />
<polyline fill="none" vector-effect="none" points="627,764 632,765 " />
<polyline fill="none" vector-effect="none" points="632,765 636,768 " />
<polyline fill="none" vector-effect="none" points="636,768 636,769 " />
<polyline fill="none" vector-effect="none" points="636,769 637,771 " />
<polyline fill="none" vector-effect="none" points="637,771 638,773 " />
<polyline fill="none" vector-effect="none" points="638,773 641,777 " />
<polyline fill="none" vector-effect="none" points="641,777 643,782 " />
<polyline fill="none" vector-effect="none" points="643,782 644,785 " />
<polyline fill="none" vector-effect="none" points="644,785 645,789 " />
<polyline fill="none" vector-effect="none" points="645,789 646,790 " />
<polyline fill="none" vector-effect="none" points="646,790 647,792 " />
<polyline fill="none" vector-effect="none" points="647,792 651,798 " />
<polyline fill="none" vector-effect="none" points="651,798 652,801 " />
<polyline fill="none" vector-effect="none" points="652,801 653,804 " />
<polyline fill="none" vector-effect="none" points="653,804 658,807 " />
<polyline fill="none" vector-effect="none" points="658,807 659,808 " />
<polyline fill="none" vector-effect="none" points="659,808 660,809 " />
<polyline fill="none" vector-effect="none" points="660,809 662,810 " />
<polyline fill="none" vector-effect="none" points="662,810 664,811 " />
<polyline fill="none" vector-effect="none" points="664,811 665,812 " />
<polyline fill="none" vector-effect="none" points="665,812 667,813 " />
<polyline fill="none" vector-effect="none" points="667,813 670,814 " />
<polyline fill="none" vector-effect="none" points="670,814 675,814 " />
<polyline fill="none" vector-effect="none" points="675,814 679,815 " />
<polyline fill="none" vector-effect="none" points="679,815 681,816 " />
<polyline fill="none" vector-effect="none" points="681,816 682,817 " />
<polyline fill="none" vector-effect="none" points="682,817 682,821 " />
<polyline fill="none" vector-effect="none" points="682,821 682,826 " />
<polyline fill="none" vector-effect="none" points="682,826 684,829 " />
<polyline fill="none" vector-effect="none" points="684,829 686,831 " />
<polyline fill="none" vector-effect="none" points="686,831 687,832 " />
<polyline fill="none" vector-effect="none" points="687,832 687,834 " />
<polyline fill="none" vector-effect="none" points="687,834 688,836 " />
<polyline fill="none" vector-effect="none" points="688,836 688,839 " />
<polyline fill="none" vector-effect="none" points="688,839 689,843 " />
<polyline fill="none" vector-effect="none" points="689,843 690,844 " />
<polyline fill="none" vector-effect="none" points="690,844 692,846 " />
<polyline fill="none" vector-effect="none" points="692,846 693,847 " />
<polyline fill="none" vector-effect="none" points="693,847 695,848 " />
<polyline fill="none" vector-effect="none" points="695,848 697,848 " />
<polyline fill="none" vector-effect="none" points="697,848 699,848 " />
<polyline fill="none" vector-effect="none" points="699,848 701,847 " />
<polyline fill="none" vector-effect="none" points="701,847 703,847 " />
<polyline fill="none" vector-effect="none" points="703,847 705,846 " />
<polyline fill="none" vector-effect="none" points="705,846 706,845 " />
<polyline fill="none" vector-effect="none" points="706,845 710,848 " />
<polyline fill="none" vector-effect="none" points="710,848 712,849 " />
<polyline fill="none" vector-effect="none" points="712,849 714,850 " />
<polyline fill="none" vector-effect="none" points="714,850 716,854 " />
<polyline fill="none" vector-effect="none" points="716,854 718,858 " />
<polyline fill="none" vector-effect="none" points="718,858 720,864 " />
<polyline fill="none" vector-effect="none" points="720,864 721,865 " />
<polyline fill="none" vector-effect="none" points="721,865 722,867 " />
<polyline fill="none" vector-effect="none" points="722,867 725,873 " />
<polyline fill="none" vector-effect="none" points="725,873 728,876 " />
<polyline fill="none" vector-effect="none" points="728,876 729,877 " />
<polyline fill="none" vector-effect="none" points="729,877 731,878 " />
<polyline fill="none" vector-effect="none" points="731,878 732,880 " />
<polyline fill="none" vector-effect="none" points="732,880 733,882 " />
<polyline fill="none" vector-effect="none" points="733,882 733,884 " />
<polyline fill="none" vector-effect="none" points="733,884 733,886 " />
<polyline fill="none" vector-effect="none" points="733,886 733,888 " />
<polyline fill="none" vector-effect="none" points="733,888 733,890 " />
<polyline fill="none" vector-effect="none" points="733,890 731,893 " />
<polyline fill="none" vector-effect="none" points="731,893 731,895 " />
<polyline fill="none" vector-effect="none" points="731,895 731,897 " />
<polyline fill="none" vector-effect="none" points="731,897 735,900 " />
<polyline fill="none" vector-effect="none" points="735,900 738,900 " />
<polyline fill="none" vector-effect="none" points="738,900 741,900 " />
<polyline fill="none" vector-effect="none" points="741,900 744,899 " />
<polyline fill="none" vector-effect="none" points="744,899 746,899 " />
<polyline fill="none" vector-effect="none" points="746,899 748,898 " />
<polyline fill="none" vector-effect="none" points="748,898 749,898 " />
<polyline fill="none" vector-effect="none" points="749,898 751,898 " />
<polyline fill="none" vector-effect="none" points="751,898 755,899 " />
<polyline fill="none" vector-effect="none" points="755,899 757,897 " />
<polyline fill="none" vector-effect="none" points="757,897 759,895 " />
<polyline fill="none" vector-effect="none" points="759,895 761,893 " />
<polyline fill="none" vector-effect="none" points="761,893 760,892 " />
<polyline fill="none" vector-effect="none" points="760,892 759,891 " />
<polyline fill="none" vector-effect="none" points="759,891 758,889 " />
<polyline fill="none" vector-effect="none" points="758,889 757,887 " />
<polyline fill="none" vector-effect="none" points="757,887 753,885 " />
<polyline fill="none" vector-effect="none" points="753,885 749,883 " />
<polyline fill="none" vector-effect="none" points="749,883 748,880 " />
<polyline fill="none" vector-effect="none" points="748,880 747,878 " />
<polyline fill="none" vector-effect="none" points="747,878 748,872 " />
<polyline fill="none" vector-effect="none" points="748,872 749,872 " />
<polyline fill="none" vector-effect="none" points="749,872 751,872 " />
<polyline fill="none" vector-effect="none" points="751,872 753,871 " />
<polyline fill="none" vector-effect="none" points="753,871 755,871 " />
<polyline fill="none" vector-effect="none" points="755,871 756,872 " />
<polyline fill="none" vector-effect="none" points="756,872 758,873 " />
<polyline fill="none" vector-effect="none" points="758,873 760,876 " />
<polyline fill="none" vector-effect="none" points="760,876 762,878 " />
<polyline fill="none" vector-effect="none" points="762,878 764,881 " />
<polyline fill="none" vector-effect="none" points="764,881 765,883 " />
<polyline fill="none" vector-effect="none" points="765,883 766,884 " />
<polyline fill="none" vector-effect="none" points="766,884 767,885 " />
<polyline fill="none" vector-effect="none" points="767,885 771,887 " />
<polyline fill="none" vector-effect="none" points="771,887 775,884 " />
<polyline fill="none" vector-effect="none" points="775,884 778,882 " />
<polyline fill="none" vector-effect="none" points="778,882 777,880 " />
<polyline fill="none" vector-effect="none" points="777,880 777,878 " />
<polyline fill="none" vector-effect="none" points="777,878 774,874 " />
<polyline fill="none" vector-effect="none" points="774,874 771,870 " />
<polyline fill="none" vector-effect="none" points="771,870 769,868 " />
<polyline fill="none" vector-effect="none" points="769,868 767,867 " />
<polyline fill="none" vector-effect="none" points="767,867 765,865 " />
<polyline fill="none" vector-effect="none" points="765,865 764,864 " />
<polyline fill="none" vector-effect="none" points="764,864 763,862 " />
<polyline fill="none" vector-effect="none" points="763,862 762,861 " />
<polyline fill="none" vector-effect="none" points="762,861 764,858 " />
<polyline fill="none" vector-effect="none" points="764,858 766,855 " />
<polyline fill="none" vector-effect="none" points="766,855 769,855 " />
<polyline fill="none" vector-effect="none" points="769,855 771,855 " />
<polyline fill="none" vector-effect="none" points="771,855 775,858 " />
<polyline fill="none" vector-effect="none" points="775,858 779,861 " />
<polyline fill="none" vector-effect="none" points="779,861 782,864 " />
<polyline fill="none" vector-effect="none" points="782,864 784,869 " />
<polyline fill="none" vector-effect="none" points="784,869 786,873 " />
<polyline fill="none" vector-effect="none" points="786,873 791,873 " />
<polyline fill="none" vector-effect="none" points="791,873 796,873 " />
<polyline fill="none" vector-effect="none" points="796,873 799,870 " />
<polyline fill="none" vector-effect="none" points="799,870 800,866 " />
<polyline fill="none" vector-effect="none" points="800,866 797,862 " />
<polyline fill="none" vector-effect="none" points="797,862 795,859 " />
<polyline fill="none" vector-effect="none" points="795,859 794,858 " />
<polyline fill="none" vector-effect="none" points="794,858 793,857 " />
<polyline fill="none" vector-effect="none" points="793,857 791,854 " />
<polyline fill="none" vector-effect="none" points="791,854 790,851 " />
<polyline fill="none" vector-effect="none" points="790,851 789,848 " />
<polyline fill="none" vector-effect="none" points="789,848 789,846 " />
<polyline fill="none" vector-effect="none" points="789,846 789,844 " />
<polyline fill="none" vector-effect="none" points="789,844 792,840 " />
<polyline fill="none" vector-effect="none" points="792,840 796,837 " />
<polyline fill="none" vector-effect="none" points="796,837 798,837 " />
<polyline fill="none" vector-effect="none" points="798,837 801,837 " />
<polyline fill="none" vector-effect="none" points="801,837 803,840 " />
<polyline fill="none" vector-effect="none" points="803,840 807,841 " />
<polyline fill="none" vector-effect="none" points="807,841 812,840 " />
<polyline fill="none" vector-effect="none" points="812,840 815,839 " />
<polyline fill="none" vector-effect="none" points="815,839 816,830 " />
<polyline fill="none" vector-effect="none" points="816,830 819,827 " />
<polyline fill="none" vector-effect="none" points="819,827 820,826 " />
<polyline fill="none" vector-effect="none" points="820,826 821,824 " />
<polyline fill="none" vector-effect="none" points="821,824 822,823 " />
<polyline fill="none" vector-effect="none" points="822,823 824,821 " />
<polyline fill="none" vector-effect="none" points="824,821 825,821 " />
<polyline fill="none" vector-effect="none" points="825,821 827,820 " />
<polyline fill="none" vector-effect="none" points="827,820 828,820 " />
<polyline fill="none" vector-effect="none" points="828,820 829,819 " />
<polyline fill="none" vector-effect="none" points="829,819 834,819 " />
<polyline fill="none" vector-effect="none" points="834,819 839,817 " />
<polyline fill="none" vector-effect="none" points="839,817 842,815 " />
<polyline fill="none" vector-effect="none" points="842,815 844,813 " />
<polyline fill="none" vector-effect="none" points="844,813 846,812 " />
<polyline fill="none" vector-effect="none" points="846,812 847,810 " />
<polyline fill="none" vector-effect="none" points="847,810 849,808 " />
<polyline fill="none" vector-effect="none" points="849,808 849,803 " />
<polyline fill="none" vector-effect="none" points="849,803 849,799 " />
<polyline fill="none" vector-effect="none" points="849,799 850,795 " />
<polyline fill="none" vector-effect="none" points="850,795 851,790 " />
<polyline fill="none" vector-effect="none" points="851,790 857,786 " />
<polyline fill="none" vector-effect="none" points="857,786 858,785 " />
<polyline fill="none" vector-effect="none" points="858,785 859,784 " />
<polyline fill="none" vector-effect="none" points="859,784 862,784 " />
<polyline fill="none" vector-effect="none" points="862,784 864,784 " />
<polyline fill="none" vector-effect="none" points="864,784 868,782 " />
<polyline fill="none" vector-effect="none" points="868,782 871,781 " />
<polyline fill="none" vector-effect="none" points="871,781 874,777 " />
<polyline fill="none" vector-effect="none" points="874,777 877,774 " />
<polyline fill="none" vector-effect="none" points="877,774 879,772 " />
<polyline fill="none" vector-effect="none" points="879,772 881,771 " />
<polyline fill="none" vector-effect="none" points="881,771 882,770 " />
<polyline fill="none" vector-effect="none" points="882,770 884,768 " />
<polyline fill="none" vector-effect="none" points="884,768 884,766 " />
<polyline fill="none" vector-effect="none" points="884,766 884,764 " />
<polyline fill="none" vector-effect="none" points="884,764 885,762 " />
<polyline fill="none" vector-effect="none" points="885,762 886,760 " />
<polyline fill="none" vector-effect="none" points="886,760 888,757 " />
<polyline fill="none" vector-effect="none" points="888,757 888,753 " />
<polyline fill="none" vector-effect="none" points="888,753 888,749 " />
<polyline fill="none" vector-effect="none" points="888,749 889,746 " />
<polyline fill="none" vector-effect="none" points="889,746 891,743 " />
<polyline fill="none" vector-effect="none" points="891,743 889,741 " />
<polyline fill="none" vector-effect="none" points="889,741 888,738 " />
<polyline fill="none" vector-effect="none" points="888,738 885,738 " />
<polyline fill="none" vector-effect="none" points="885,738 883,739 " />
<polyline fill="none" vector-effect="none" points="883,739 881,740 " />
<polyline fill="none" vector-effect="none" points="881,740 879,741 " />
<polyline fill="none" vector-effect="none" points="879,741 878,743 " />
<polyline fill="none" vector-effect="none" points="878,743 875,744 " />
<polyline fill="none" vector-effect="none" points="875,744 873,745 " />
<polyline fill="none" vector-effect="none" points="873,745 871,745 " />
<polyline fill="none" vector-effect="none" points="871,745 869,745 " />
<polyline fill="none" vector-effect="none" points="869,745 868,744 " />
<polyline fill="none" vector-effect="none" points="868,744 867,742 " />
<polyline fill="none" vector-effect="none" points="867,742 867,737 " />
<polyline fill="none" vector-effect="none" points="867,737 869,734 " />
<polyline fill="none" vector-effect="none" points="869,734 869,729 " />
<polyline fill="none" vector-effect="none" points="869,729 866,726 " />
<polyline fill="none" vector-effect="none" points="866,726 865,723 " />
<polyline fill="none" vector-effect="none" points="865,723 865,721 " />
<polyline fill="none" vector-effect="none" points="865,721 863,718 " />
<polyline fill="none" vector-effect="none" points="863,718 862,714 " />
<polyline fill="none" vector-effect="none" points="862,714 861,713 " />
<polyline fill="none" vector-effect="none" points="861,713 860,712 " />
<polyline fill="none" vector-effect="none" points="860,712 859,710 " />
<polyline fill="none" vector-effect="none" points="859,710 857,709 " />
<polyline fill="none" vector-effect="none" points="857,709 856,707 " />
<polyline fill="none" vector-effect="none" points="856,707 855,705 " />
<polyline fill="none" vector-effect="none" points="855,705 854,704 " />
<polyline fill="none" vector-effect="none" points="854,704 853,703 " />
<polyline fill="none" vector-effect="none" points="853,703 851,700 " />
<polyline fill="none" vector-effect="none" points="851,700 849,697 " />
<polyline fill="none" vector-effect="none" points="849,697 846,697 " />
<polyline fill="none" vector-effect="none" points="846,697 844,696 " />
<polyline fill="none" vector-effect="none" points="844,696 842,695 " />
<polyline fill="none" vector-effect="none" points="842,695 840,694 " />
<polyline fill="none" vector-effect="none" points="840,694 840,691 " />
<polyline fill="none" vector-effect="none" points="840,691 838,687 " />
<polyline fill="none" vector-effect="none" points="838,687 839,683 " />
<polyline fill="none" vector-effect="none" points="839,683 837,683 " />
<polyline fill="none" vector-effect="none" points="837,683 836,682 " />
<polyline fill="none" vector-effect="none" points="836,682 829,680 " />
<polyline fill="none" vector-effect="none" points="829,680 826,678 " />
<polyline fill="none" vector-effect="none" points="826,678 824,676 " />
<polyline fill="none" vector-effect="none" points="824,676 820,673 " />
<polyline fill="none" vector-effect="none" points="820,673 818,669 " />
<polyline fill="none" vector-effect="none" points="818,669 817,667 " />
<polyline fill="none" vector-effect="none" points="817,667 815,665 " />
<polyline fill="none" vector-effect="none" points="815,665 814,662 " />
<polyline fill="none" vector-effect="none" points="814,662 812,657 " />
<polyline fill="none" vector-effect="none" points="812,657 807,655 " />
<polyline fill="none" vector-effect="none" points="807,655 806,654 " />
<polyline fill="none" vector-effect="none" points="806,654 805,653 " />
<polyline fill="none" vector-effect="none" points="805,653 800,651 " />
<polyline fill="none" vector-effect="none" points="800,651 793,649 " />
<polyline fill="none" vector-effect="none" points="793,649 792,648 " />
<polyline fill="none" vector-effect="none" points="792,648 791,646 " />
<polyline fill="none" vector-effect="none" points="791,646 789,645 " />
<polyline fill="none" vector-effect="none" points="789,645 788,645 " />
<polyline fill="none" vector-effect="none" points="788,645 785,643 " />
<polyline fill="none" vector-effect="none" points="785,643 782,640 " />
<polyline fill="none" vector-effect="none" points="782,640 781,639 " />
<polyline fill="none" vector-effect="none" points="781,639 780,638 " />
<polyline fill="none" vector-effect="none" points="780,638 779,635 " />
<polyline fill="none" vector-effect="none" points="779,635 778,633 " />
<polyline fill="none" vector-effect="none" points="778,633 776,632 " />
<polyline fill="none" vector-effect="none" points="776,632 775,630 " />
<polyline fill="none" vector-effect="none" points="775,630 773,628 " />
<polyline fill="none" vector-effect="none" points="773,628 772,626 " />
<polyline fill="none" vector-effect="none" points="772,626 771,625 " />
<polyline fill="none" vector-effect="none" points="771,625 770,621 " />
<polyline fill="none" vector-effect="none" points="770,621 768,621 " />
<polyline fill="none" vector-effect="none" points="768,621 767,620 " />
<polyline fill="none" vector-effect="none" points="767,620 766,619 " />
<polyline fill="none" vector-effect="none" points="766,619 765,618 " />
<polyline fill="none" vector-effect="none" points="765,618 763,615 " />
<polyline fill="none" vector-effect="none" points="763,615 761,612 " />
<polyline fill="none" vector-effect="none" points="761,612 755,611 " />
<polyline fill="none" vector-effect="none" points="755,611 753,611 " />
<polyline fill="none" vector-effect="none" points="753,611 752,611 " />
<polyline fill="none" vector-effect="none" points="752,611 750,610 " />
<polyline fill="none" vector-effect="none" points="750,610 748,609 " />
<polyline fill="none" vector-effect="none" points="748,609 746,608 " />
<polyline fill="none" vector-effect="none" points="746,608 745,606 " />
<polyline fill="none" vector-effect="none" points="745,606 740,602 " />
<polyline fill="none" vector-effect="none" points="740,602 736,600 " />
<polyline fill="none" vector-effect="none" points="736,600 734,600 " />
<polyline fill="none" vector-effect="none" points="734,600 732,601 " />
<polyline fill="none" vector-effect="none" points="732,601 729,604 " />
<polyline fill="none" vector-effect="none" points="729,604 729,609 " />
<polyline fill="none" vector-effect="none" points="729,609 731,612 " />
<polyline fill="none" vector-effect="none" points="731,612 733,614 " />
<polyline fill="none" vector-effect="none" points="733,614 734,615 " />
<polyline fill="none" vector-effect="none" points="734,615 735,616 " />
<polyline fill="none" vector-effect="none" points="735,616 736,618 " />
<polyline fill="none" vector-effect="none" points="736,618 737,620 " />
<polyline fill="none" vector-effect="none" points="737,620 738,621 " />
<polyline fill="none" vector-effect="none" points="738,621 738,623 " />
<polyline fill="none" vector-effect="none" points="738,623 738,625 " />
<polyline fill="none" vector-effect="none" points="738,625 738,627 " />
<polyline fill="none" vector-effect="none" points="738,627 738,629 " />
<polyline fill="none" vector-effect="none" points="738,629 737,631 " />
<polyline fill="none" vector-effect="none" points="737,631 737,632 " />
<polyline fill="none" vector-effect="none" points="737,632 733,636 " />
<polyline fill="none" vector-effect="none" points="733,636 731,636 " />
<polyline fill="none" vector-effect="none" points="731,636 729,637 " />
<polyline fill="none" vector-effect="none" points="729,637 726,635 " />
<polyline fill="none" vector-effect="none" points="726,635 725,634 " />
<polyline fill="none" vector-effect="none" points="725,634 724,633 " />
<polyline fill="none" vector-effect="none" points="724,633 721,632 " />
<polyline fill="none" vector-effect="none" points="721,632 718,631 " />
<polyline fill="none" vector-effect="none" points="718,631 714,631 " />
<polyline fill="none" vector-effect="none" points="714,631 713,633 " />
<polyline fill="none" vector-effect="none" points="713,633 712,634 " />
<polyline fill="none" vector-effect="none" points="712,634 709,638 " />
<polyline fill="none" vector-effect="none" points="709,638 711,642 " />
<polyline fill="none" vector-effect="none" points="711,642 708,643 " />
<polyline fill="none" vector-effect="none" points="708,643 705,644 " />
<polyline fill="none" vector-effect="none" points="705,644 703,646 " />
<polyline fill="none" vector-effect="none" points="703,646 698,647 " />
<polyline fill="none" vector-effect="none" points="698,647 693,649 " />
<polyline fill="none" vector-effect="none" points="693,649 691,649 " />
<polyline fill="none" vector-effect="none" points="691,649 689,649 " />
<polyline fill="none" vector-effect="none" points="689,649 687,649 " />
<polyline fill="none" vector-effect="none" points="687,649 685,649 " />
<polyline fill="none" vector-effect="none" points="685,649 682,652 " />
<polyline fill="none" vector-effect="none" points="682,652 681,654 " />
<polyline fill="none" vector-effect="none" points="681,654 680,655 " />
<polyline fill="none" vector-effect="none" points="680,655 681,657 " />
<polyline fill="none" vector-effect="none" points="681,657 682,659 " />
<polyline fill="none" vector-effect="none" points="682,659 687,661 " />
<polyline fill="none" vector-effect="none" points="687,661 690,661 " />
<polyline fill="none" vector-effect="none" points="690,661 694,660 " />
<polyline fill="none" vector-effect="none" points="694,660 695,660 " />
<polyline fill="none" vector-effect="none" points="695,660 697,659 " />
<polyline fill="none" vector-effect="none" points="697,659 699,658 " />
<polyline fill="none" vector-effect="none" points="699,658 700,657 " />
<polyline fill="none" vector-effect="none" points="700,657 702,657 " />
<polyline fill="none" vector-effect="none" points="702,657 704,657 " />
<polyline fill="none" vector-effect="none" points="704,657 707,662 " />
<polyline fill="none" vector-effect="none" points="707,662 707,666 " />
<polyline fill="none" vector-effect="none" points="707,666 705,667 " />
<polyline fill="none" vector-effect="none" points="705,667 703,669 " />
<polyline fill="none" vector-effect="none" points="703,669 701,669 " />
<polyline fill="none" vector-effect="none" points="701,669 699,670 " />
<polyline fill="none" vector-effect="none" points="699,670 697,670 " />
<polyline fill="none" vector-effect="none" points="697,670 695,670 " />
<polyline fill="none" vector-effect="none" points="695,670 688,670 " />
<polyline fill="none" vector-effect="none" points="688,670 687,669 " />
<polyline fill="none" vector-effect="none" points="687,669 685,669 " />
<polyline fill="none" vector-effect="none" points="685,669 684,669 " />
<polyline fill="none" vector-effect="none" points="684,669 680,669 " />
</g>
</g>
</svg>
