<?xml version="1.0" encoding="UTF-8" standalone="no"?>
<svg width="529.167mm" height="529.167mm"
 viewBox="0 0 1500 1500"
 xmlns="http://www.w3.org/2000/svg" xmlns:xlink="http://www.w3.org/1999/xlink"  version="1.2" baseProfile="tiny">
<title>Bizzare Labyrinth</title>
<desc>Time (seconds): 0
Iteration: 0
# Points: 16
f_b: 0.06
f_f: 0.2
f_a: 0.008
ar_clamp: 20
D: 1
sigma_l_j: 1
search_radius: 20
</desc>
<defs>
</defs>
<g fill="none" stroke="black" stroke-width="1" fill-rule="evenodd" stroke-linecap="square" stroke-linejoin="bevel" >

<g fill="none" stroke="#000000" stroke-opacity="1" stroke-width="1" stroke-linecap="square" stroke-linejoin="bevel" transform="matrix(1,0,0,1,0,0)"
font-family="Droid Sans" font-size="9.5" font-weight="400" font-style="normal" 
>
</g>

<g fill="none" stroke="#000000" stroke-opacity="1" stroke-width="1" stroke-linecap="square" stroke-linejoin="bevel" transform="matrix(1,0,0,1,0,0)"
font-family="Droid Sans" font-size="9.5" font-weight="400" font-style="normal" 
>
<polyline fill="none" vector-effect="none" points="750,885 787,855 " />
<polyline fill="none" vector-effect="none" points="787,855 825,825 " />
<polyline fill="none" vector-effect="none" points="825,825 855,787 " />
<polyline fill="none" vector-effect="none" points="855,787 885,750 " />
<polyline fill="none" vector-effect="none" points="885,750 854,712 " />
<polyline fill="none" vector-effect="none" points="854,712 824,675 " />
<polyline fill="none" vector-effect="none" points="824,675 787,644 " />
<polyline fill="none" vector-effect="none" points="787,644 749,614 " />
<polyline fill="none" vector-effect="none" points="749,614 712,644 " />
<polyline fill="none" vector-effect="none" points="712,644 675,674 " />
<polyline fill="none" vector-effect="none" points="675,674 644,713 " />
<polyline fill="none" vector-effect="none" points="644,713 614,751 " />
<polyline fill="none" vector-effect="none" points="614,751 645,788 " />
<polyline fill="none" vector-effect="none" points="645,788 676,824 " />
<polyline fill="none" vector-effect="none" points="676,824 713,855 " />
<polyline fill="none" vector-effect="none" points="713,855 750,885 " />
</g>
</g>
</svg>
