<?xml version="1.0" encoding="UTF-8" standalone="no"?>
<svg width="529.167mm" height="529.167mm"
 viewBox="0 0 1500 1500"
 xmlns="http://www.w3.org/2000/svg" xmlns:xlink="http://www.w3.org/1999/xlink"  version="1.2" baseProfile="tiny">
<title>Bizzare Labyrinth</title>
<desc>Time (seconds): 0
Iteration: 0
# Points: 16
f_b: 0.02
f_f: 0.15
f_a: 0.006
ar_clamp: 20
D: 1
sigma_l_j: 1
search_radius: 20
</desc>
<defs>
</defs>
<g fill="none" stroke="black" stroke-width="1" fill-rule="evenodd" stroke-linecap="square" stroke-linejoin="bevel" >

<g fill="none" stroke="#000000" stroke-opacity="1" stroke-width="1" stroke-linecap="square" stroke-linejoin="bevel" transform="matrix(1,0,0,1,0,0)"
font-family="Droid Sans" font-size="9.5" font-weight="400" font-style="normal" 
>
</g>

<g fill="none" stroke="#000000" stroke-opacity="1" stroke-width="1" stroke-linecap="square" stroke-linejoin="bevel" transform="matrix(1,0,0,1,0,0)"
font-family="Droid Sans" font-size="9.5" font-weight="400" font-style="normal" 
>
<polyline fill="none" vector-effect="none" points="749,888 787,856 " />
<polyline fill="none" vector-effect="none" points="787,856 824,824 " />
<polyline fill="none" vector-effect="none" points="824,824 856,787 " />
<polyline fill="none" vector-effect="none" points="856,787 888,750 " />
<polyline fill="none" vector-effect="none" points="888,750 856,712 " />
<polyline fill="none" vector-effect="none" points="856,712 825,675 " />
<polyline fill="none" vector-effect="none" points="825,675 787,643 " />
<polyline fill="none" vector-effect="none" points="787,643 749,611 " />
<polyline fill="none" vector-effect="none" points="749,611 712,643 " />
<polyline fill="none" vector-effect="none" points="712,643 674,674 " />
<polyline fill="none" vector-effect="none" points="674,674 643,712 " />
<polyline fill="none" vector-effect="none" points="643,712 611,749 " />
<polyline fill="none" vector-effect="none" points="611,749 643,787 " />
<polyline fill="none" vector-effect="none" points="643,787 674,825 " />
<polyline fill="none" vector-effect="none" points="674,825 712,856 " />
<polyline fill="none" vector-effect="none" points="712,856 749,888 " />
</g>
</g>
</svg>
