<?xml version="1.0" encoding="UTF-8" standalone="no"?>
<svg width="529.167mm" height="529.167mm"
 viewBox="0 0 1500 1500"
 xmlns="http://www.w3.org/2000/svg" xmlns:xlink="http://www.w3.org/1999/xlink"  version="1.2" baseProfile="tiny">
<title>Bizzare Labyrinth</title>
<desc>Time (seconds): 1.60415
Iteration: 500
# Points: 489
f_b: 0.02
f_f: 0.15
f_a: 0.006
ar_clamp: 20
D: 1
sigma_l_j: 1
search_radius: 20
</desc>
<defs>
</defs>
<g fill="none" stroke="black" stroke-width="1" fill-rule="evenodd" stroke-linecap="square" stroke-linejoin="bevel" >

<g fill="none" stroke="#000000" stroke-opacity="1" stroke-width="1" stroke-linecap="square" stroke-linejoin="bevel" transform="matrix(1,0,0,1,0,0)"
font-family="Droid Sans" font-size="9.5" font-weight="400" font-style="normal" 
>
</g>

<g fill="none" stroke="#000000" stroke-opacity="1" stroke-width="1" stroke-linecap="square" stroke-linejoin="bevel" transform="matrix(1,0,0,1,0,0)"
font-family="Droid Sans" font-size="9.5" font-weight="400" font-style="normal" 
>
<polyline fill="none" vector-effect="none" points="651,723 648,721 " />
<polyline fill="none" vector-effect="none" points="648,721 646,721 " />
<polyline fill="none" vector-effect="none" points="646,721 645,720 " />
<polyline fill="none" vector-effect="none" points="645,720 642,717 " />
<polyline fill="none" vector-effect="none" points="642,717 641,715 " />
<polyline fill="none" vector-effect="none" points="641,715 641,713 " />
<polyline fill="none" vector-effect="none" points="641,713 637,711 " />
<polyline fill="none" vector-effect="none" points="637,711 633,710 " />
<polyline fill="none" vector-effect="none" points="633,710 629,712 " />
<polyline fill="none" vector-effect="none" points="629,712 627,716 " />
<polyline fill="none" vector-effect="none" points="627,716 625,719 " />
<polyline fill="none" vector-effect="none" points="625,719 624,721 " />
<polyline fill="none" vector-effect="none" points="624,721 623,722 " />
<polyline fill="none" vector-effect="none" points="623,722 624,727 " />
<polyline fill="none" vector-effect="none" points="624,727 626,728 " />
<polyline fill="none" vector-effect="none" points="626,728 627,729 " />
<polyline fill="none" vector-effect="none" points="627,729 629,730 " />
<polyline fill="none" vector-effect="none" points="629,730 630,731 " />
<polyline fill="none" vector-effect="none" points="630,731 632,730 " />
<polyline fill="none" vector-effect="none" points="632,730 634,730 " />
<polyline fill="none" vector-effect="none" points="634,730 635,730 " />
<polyline fill="none" vector-effect="none" points="635,730 637,729 " />
<polyline fill="none" vector-effect="none" points="637,729 642,729 " />
<polyline fill="none" vector-effect="none" points="642,729 647,731 " />
<polyline fill="none" vector-effect="none" points="647,731 651,733 " />
<polyline fill="none" vector-effect="none" points="651,733 654,736 " />
<polyline fill="none" vector-effect="none" points="654,736 651,742 " />
<polyline fill="none" vector-effect="none" points="651,742 648,744 " />
<polyline fill="none" vector-effect="none" points="648,744 643,741 " />
<polyline fill="none" vector-effect="none" points="643,741 641,740 " />
<polyline fill="none" vector-effect="none" points="641,740 639,740 " />
<polyline fill="none" vector-effect="none" points="639,740 632,740 " />
<polyline fill="none" vector-effect="none" points="632,740 630,740 " />
<polyline fill="none" vector-effect="none" points="630,740 628,740 " />
<polyline fill="none" vector-effect="none" points="628,740 621,736 " />
<polyline fill="none" vector-effect="none" points="621,736 619,735 " />
<polyline fill="none" vector-effect="none" points="619,735 618,733 " />
<polyline fill="none" vector-effect="none" points="618,733 617,732 " />
<polyline fill="none" vector-effect="none" points="617,732 615,730 " />
<polyline fill="none" vector-effect="none" points="615,730 613,729 " />
<polyline fill="none" vector-effect="none" points="613,729 612,728 " />
<polyline fill="none" vector-effect="none" points="612,728 609,728 " />
<polyline fill="none" vector-effect="none" points="609,728 607,728 " />
<polyline fill="none" vector-effect="none" points="607,728 606,729 " />
<polyline fill="none" vector-effect="none" points="606,729 604,730 " />
<polyline fill="none" vector-effect="none" points="604,730 603,731 " />
<polyline fill="none" vector-effect="none" points="603,731 601,732 " />
<polyline fill="none" vector-effect="none" points="601,732 600,734 " />
<polyline fill="none" vector-effect="none" points="600,734 599,736 " />
<polyline fill="none" vector-effect="none" points="599,736 599,738 " />
<polyline fill="none" vector-effect="none" points="599,738 599,740 " />
<polyline fill="none" vector-effect="none" points="599,740 598,742 " />
<polyline fill="none" vector-effect="none" points="598,742 598,743 " />
<polyline fill="none" vector-effect="none" points="598,743 597,745 " />
<polyline fill="none" vector-effect="none" points="597,745 597,747 " />
<polyline fill="none" vector-effect="none" points="597,747 597,751 " />
<polyline fill="none" vector-effect="none" points="597,751 598,753 " />
<polyline fill="none" vector-effect="none" points="598,753 598,755 " />
<polyline fill="none" vector-effect="none" points="598,755 600,757 " />
<polyline fill="none" vector-effect="none" points="600,757 602,759 " />
<polyline fill="none" vector-effect="none" points="602,759 603,759 " />
<polyline fill="none" vector-effect="none" points="603,759 605,759 " />
<polyline fill="none" vector-effect="none" points="605,759 609,759 " />
<polyline fill="none" vector-effect="none" points="609,759 612,756 " />
<polyline fill="none" vector-effect="none" points="612,756 614,755 " />
<polyline fill="none" vector-effect="none" points="614,755 616,753 " />
<polyline fill="none" vector-effect="none" points="616,753 617,752 " />
<polyline fill="none" vector-effect="none" points="617,752 619,751 " />
<polyline fill="none" vector-effect="none" points="619,751 623,750 " />
<polyline fill="none" vector-effect="none" points="623,750 625,750 " />
<polyline fill="none" vector-effect="none" points="625,750 627,749 " />
<polyline fill="none" vector-effect="none" points="627,749 629,750 " />
<polyline fill="none" vector-effect="none" points="629,750 631,750 " />
<polyline fill="none" vector-effect="none" points="631,750 633,750 " />
<polyline fill="none" vector-effect="none" points="633,750 635,750 " />
<polyline fill="none" vector-effect="none" points="635,750 636,750 " />
<polyline fill="none" vector-effect="none" points="636,750 638,750 " />
<polyline fill="none" vector-effect="none" points="638,750 640,750 " />
<polyline fill="none" vector-effect="none" points="640,750 642,751 " />
<polyline fill="none" vector-effect="none" points="642,751 644,751 " />
<polyline fill="none" vector-effect="none" points="644,751 645,752 " />
<polyline fill="none" vector-effect="none" points="645,752 647,757 " />
<polyline fill="none" vector-effect="none" points="647,757 644,761 " />
<polyline fill="none" vector-effect="none" points="644,761 640,762 " />
<polyline fill="none" vector-effect="none" points="640,762 636,760 " />
<polyline fill="none" vector-effect="none" points="636,760 632,761 " />
<polyline fill="none" vector-effect="none" points="632,761 630,762 " />
<polyline fill="none" vector-effect="none" points="630,762 629,763 " />
<polyline fill="none" vector-effect="none" points="629,763 627,767 " />
<polyline fill="none" vector-effect="none" points="627,767 626,770 " />
<polyline fill="none" vector-effect="none" points="626,770 627,772 " />
<polyline fill="none" vector-effect="none" points="627,772 627,775 " />
<polyline fill="none" vector-effect="none" points="627,775 629,778 " />
<polyline fill="none" vector-effect="none" points="629,778 632,780 " />
<polyline fill="none" vector-effect="none" points="632,780 636,783 " />
<polyline fill="none" vector-effect="none" points="636,783 639,784 " />
<polyline fill="none" vector-effect="none" points="639,784 642,787 " />
<polyline fill="none" vector-effect="none" points="642,787 644,790 " />
<polyline fill="none" vector-effect="none" points="644,790 645,793 " />
<polyline fill="none" vector-effect="none" points="645,793 646,798 " />
<polyline fill="none" vector-effect="none" points="646,798 646,801 " />
<polyline fill="none" vector-effect="none" points="646,801 647,805 " />
<polyline fill="none" vector-effect="none" points="647,805 650,808 " />
<polyline fill="none" vector-effect="none" points="650,808 654,808 " />
<polyline fill="none" vector-effect="none" points="654,808 656,807 " />
<polyline fill="none" vector-effect="none" points="656,807 657,806 " />
<polyline fill="none" vector-effect="none" points="657,806 660,803 " />
<polyline fill="none" vector-effect="none" points="660,803 661,802 " />
<polyline fill="none" vector-effect="none" points="661,802 662,800 " />
<polyline fill="none" vector-effect="none" points="662,800 664,799 " />
<polyline fill="none" vector-effect="none" points="664,799 665,797 " />
<polyline fill="none" vector-effect="none" points="665,797 666,796 " />
<polyline fill="none" vector-effect="none" points="666,796 667,794 " />
<polyline fill="none" vector-effect="none" points="667,794 670,792 " />
<polyline fill="none" vector-effect="none" points="670,792 673,793 " />
<polyline fill="none" vector-effect="none" points="673,793 675,793 " />
<polyline fill="none" vector-effect="none" points="675,793 676,795 " />
<polyline fill="none" vector-effect="none" points="676,795 678,796 " />
<polyline fill="none" vector-effect="none" points="678,796 678,799 " />
<polyline fill="none" vector-effect="none" points="678,799 678,801 " />
<polyline fill="none" vector-effect="none" points="678,801 677,802 " />
<polyline fill="none" vector-effect="none" points="677,802 676,804 " />
<polyline fill="none" vector-effect="none" points="676,804 675,805 " />
<polyline fill="none" vector-effect="none" points="675,805 673,806 " />
<polyline fill="none" vector-effect="none" points="673,806 671,807 " />
<polyline fill="none" vector-effect="none" points="671,807 669,808 " />
<polyline fill="none" vector-effect="none" points="669,808 666,810 " />
<polyline fill="none" vector-effect="none" points="666,810 664,813 " />
<polyline fill="none" vector-effect="none" points="664,813 661,816 " />
<polyline fill="none" vector-effect="none" points="661,816 661,820 " />
<polyline fill="none" vector-effect="none" points="661,820 662,824 " />
<polyline fill="none" vector-effect="none" points="662,824 664,827 " />
<polyline fill="none" vector-effect="none" points="664,827 665,828 " />
<polyline fill="none" vector-effect="none" points="665,828 667,830 " />
<polyline fill="none" vector-effect="none" points="667,830 668,831 " />
<polyline fill="none" vector-effect="none" points="668,831 670,832 " />
<polyline fill="none" vector-effect="none" points="670,832 674,833 " />
<polyline fill="none" vector-effect="none" points="674,833 676,833 " />
<polyline fill="none" vector-effect="none" points="676,833 678,832 " />
<polyline fill="none" vector-effect="none" points="678,832 679,831 " />
<polyline fill="none" vector-effect="none" points="679,831 681,830 " />
<polyline fill="none" vector-effect="none" points="681,830 682,829 " />
<polyline fill="none" vector-effect="none" points="682,829 684,828 " />
<polyline fill="none" vector-effect="none" points="684,828 686,826 " />
<polyline fill="none" vector-effect="none" points="686,826 688,825 " />
<polyline fill="none" vector-effect="none" points="688,825 690,824 " />
<polyline fill="none" vector-effect="none" points="690,824 692,822 " />
<polyline fill="none" vector-effect="none" points="692,822 694,822 " />
<polyline fill="none" vector-effect="none" points="694,822 695,821 " />
<polyline fill="none" vector-effect="none" points="695,821 697,821 " />
<polyline fill="none" vector-effect="none" points="697,821 698,820 " />
<polyline fill="none" vector-effect="none" points="698,820 700,819 " />
<polyline fill="none" vector-effect="none" points="700,819 702,818 " />
<polyline fill="none" vector-effect="none" points="702,818 706,818 " />
<polyline fill="none" vector-effect="none" points="706,818 709,819 " />
<polyline fill="none" vector-effect="none" points="709,819 710,821 " />
<polyline fill="none" vector-effect="none" points="710,821 712,823 " />
<polyline fill="none" vector-effect="none" points="712,823 710,826 " />
<polyline fill="none" vector-effect="none" points="710,826 708,828 " />
<polyline fill="none" vector-effect="none" points="708,828 707,829 " />
<polyline fill="none" vector-effect="none" points="707,829 703,829 " />
<polyline fill="none" vector-effect="none" points="703,829 699,830 " />
<polyline fill="none" vector-effect="none" points="699,830 698,831 " />
<polyline fill="none" vector-effect="none" points="698,831 696,831 " />
<polyline fill="none" vector-effect="none" points="696,831 695,832 " />
<polyline fill="none" vector-effect="none" points="695,832 694,833 " />
<polyline fill="none" vector-effect="none" points="694,833 690,835 " />
<polyline fill="none" vector-effect="none" points="690,835 687,837 " />
<polyline fill="none" vector-effect="none" points="687,837 685,838 " />
<polyline fill="none" vector-effect="none" points="685,838 683,840 " />
<polyline fill="none" vector-effect="none" points="683,840 680,842 " />
<polyline fill="none" vector-effect="none" points="680,842 679,845 " />
<polyline fill="none" vector-effect="none" points="679,845 678,847 " />
<polyline fill="none" vector-effect="none" points="678,847 678,851 " />
<polyline fill="none" vector-effect="none" points="678,851 676,853 " />
<polyline fill="none" vector-effect="none" points="676,853 674,858 " />
<polyline fill="none" vector-effect="none" points="674,858 674,860 " />
<polyline fill="none" vector-effect="none" points="674,860 675,861 " />
<polyline fill="none" vector-effect="none" points="675,861 675,863 " />
<polyline fill="none" vector-effect="none" points="675,863 676,865 " />
<polyline fill="none" vector-effect="none" points="676,865 680,866 " />
<polyline fill="none" vector-effect="none" points="680,866 685,866 " />
<polyline fill="none" vector-effect="none" points="685,866 687,863 " />
<polyline fill="none" vector-effect="none" points="687,863 688,858 " />
<polyline fill="none" vector-effect="none" points="688,858 687,855 " />
<polyline fill="none" vector-effect="none" points="687,855 688,850 " />
<polyline fill="none" vector-effect="none" points="688,850 690,847 " />
<polyline fill="none" vector-effect="none" points="690,847 693,845 " />
<polyline fill="none" vector-effect="none" points="693,845 695,843 " />
<polyline fill="none" vector-effect="none" points="695,843 697,842 " />
<polyline fill="none" vector-effect="none" points="697,842 700,841 " />
<polyline fill="none" vector-effect="none" points="700,841 703,840 " />
<polyline fill="none" vector-effect="none" points="703,840 707,839 " />
<polyline fill="none" vector-effect="none" points="707,839 710,838 " />
<polyline fill="none" vector-effect="none" points="710,838 712,840 " />
<polyline fill="none" vector-effect="none" points="712,840 713,842 " />
<polyline fill="none" vector-effect="none" points="713,842 714,844 " />
<polyline fill="none" vector-effect="none" points="714,844 714,845 " />
<polyline fill="none" vector-effect="none" points="714,845 713,847 " />
<polyline fill="none" vector-effect="none" points="713,847 713,849 " />
<polyline fill="none" vector-effect="none" points="713,849 712,851 " />
<polyline fill="none" vector-effect="none" points="712,851 712,853 " />
<polyline fill="none" vector-effect="none" points="712,853 712,855 " />
<polyline fill="none" vector-effect="none" points="712,855 712,857 " />
<polyline fill="none" vector-effect="none" points="712,857 713,858 " />
<polyline fill="none" vector-effect="none" points="713,858 715,860 " />
<polyline fill="none" vector-effect="none" points="715,860 716,861 " />
<polyline fill="none" vector-effect="none" points="716,861 718,862 " />
<polyline fill="none" vector-effect="none" points="718,862 722,863 " />
<polyline fill="none" vector-effect="none" points="722,863 725,863 " />
<polyline fill="none" vector-effect="none" points="725,863 728,864 " />
<polyline fill="none" vector-effect="none" points="728,864 730,866 " />
<polyline fill="none" vector-effect="none" points="730,866 733,868 " />
<polyline fill="none" vector-effect="none" points="733,868 735,871 " />
<polyline fill="none" vector-effect="none" points="735,871 739,873 " />
<polyline fill="none" vector-effect="none" points="739,873 740,877 " />
<polyline fill="none" vector-effect="none" points="740,877 743,880 " />
<polyline fill="none" vector-effect="none" points="743,880 744,884 " />
<polyline fill="none" vector-effect="none" points="744,884 744,886 " />
<polyline fill="none" vector-effect="none" points="744,886 744,888 " />
<polyline fill="none" vector-effect="none" points="744,888 744,889 " />
<polyline fill="none" vector-effect="none" points="744,889 744,891 " />
<polyline fill="none" vector-effect="none" points="744,891 744,895 " />
<polyline fill="none" vector-effect="none" points="744,895 746,896 " />
<polyline fill="none" vector-effect="none" points="746,896 747,897 " />
<polyline fill="none" vector-effect="none" points="747,897 751,899 " />
<polyline fill="none" vector-effect="none" points="751,899 753,899 " />
<polyline fill="none" vector-effect="none" points="753,899 755,898 " />
<polyline fill="none" vector-effect="none" points="755,898 759,896 " />
<polyline fill="none" vector-effect="none" points="759,896 760,892 " />
<polyline fill="none" vector-effect="none" points="760,892 760,890 " />
<polyline fill="none" vector-effect="none" points="760,890 760,889 " />
<polyline fill="none" vector-effect="none" points="760,889 759,885 " />
<polyline fill="none" vector-effect="none" points="759,885 757,882 " />
<polyline fill="none" vector-effect="none" points="757,882 755,878 " />
<polyline fill="none" vector-effect="none" points="755,878 755,874 " />
<polyline fill="none" vector-effect="none" points="755,874 757,871 " />
<polyline fill="none" vector-effect="none" points="757,871 759,870 " />
<polyline fill="none" vector-effect="none" points="759,870 760,869 " />
<polyline fill="none" vector-effect="none" points="760,869 764,868 " />
<polyline fill="none" vector-effect="none" points="764,868 768,868 " />
<polyline fill="none" vector-effect="none" points="768,868 770,868 " />
<polyline fill="none" vector-effect="none" points="770,868 772,869 " />
<polyline fill="none" vector-effect="none" points="772,869 776,868 " />
<polyline fill="none" vector-effect="none" points="776,868 782,864 " />
<polyline fill="none" vector-effect="none" points="782,864 787,859 " />
<polyline fill="none" vector-effect="none" points="787,859 789,856 " />
<polyline fill="none" vector-effect="none" points="789,856 791,854 " />
<polyline fill="none" vector-effect="none" points="791,854 793,853 " />
<polyline fill="none" vector-effect="none" points="793,853 794,852 " />
<polyline fill="none" vector-effect="none" points="794,852 796,851 " />
<polyline fill="none" vector-effect="none" points="796,851 797,850 " />
<polyline fill="none" vector-effect="none" points="797,850 799,849 " />
<polyline fill="none" vector-effect="none" points="799,849 801,848 " />
<polyline fill="none" vector-effect="none" points="801,848 806,845 " />
<polyline fill="none" vector-effect="none" points="806,845 807,843 " />
<polyline fill="none" vector-effect="none" points="807,843 809,842 " />
<polyline fill="none" vector-effect="none" points="809,842 811,839 " />
<polyline fill="none" vector-effect="none" points="811,839 813,837 " />
<polyline fill="none" vector-effect="none" points="813,837 815,836 " />
<polyline fill="none" vector-effect="none" points="815,836 818,833 " />
<polyline fill="none" vector-effect="none" points="818,833 819,829 " />
<polyline fill="none" vector-effect="none" points="819,829 820,825 " />
<polyline fill="none" vector-effect="none" points="820,825 822,822 " />
<polyline fill="none" vector-effect="none" points="822,822 824,819 " />
<polyline fill="none" vector-effect="none" points="824,819 827,816 " />
<polyline fill="none" vector-effect="none" points="827,816 830,814 " />
<polyline fill="none" vector-effect="none" points="830,814 832,814 " />
<polyline fill="none" vector-effect="none" points="832,814 834,814 " />
<polyline fill="none" vector-effect="none" points="834,814 836,814 " />
<polyline fill="none" vector-effect="none" points="836,814 838,814 " />
<polyline fill="none" vector-effect="none" points="838,814 839,813 " />
<polyline fill="none" vector-effect="none" points="839,813 841,812 " />
<polyline fill="none" vector-effect="none" points="841,812 842,810 " />
<polyline fill="none" vector-effect="none" points="842,810 843,809 " />
<polyline fill="none" vector-effect="none" points="843,809 844,807 " />
<polyline fill="none" vector-effect="none" points="844,807 845,805 " />
<polyline fill="none" vector-effect="none" points="845,805 845,804 " />
<polyline fill="none" vector-effect="none" points="845,804 846,802 " />
<polyline fill="none" vector-effect="none" points="846,802 847,800 " />
<polyline fill="none" vector-effect="none" points="847,800 848,798 " />
<polyline fill="none" vector-effect="none" points="848,798 849,797 " />
<polyline fill="none" vector-effect="none" points="849,797 850,795 " />
<polyline fill="none" vector-effect="none" points="850,795 850,793 " />
<polyline fill="none" vector-effect="none" points="850,793 851,791 " />
<polyline fill="none" vector-effect="none" points="851,791 853,790 " />
<polyline fill="none" vector-effect="none" points="853,790 854,789 " />
<polyline fill="none" vector-effect="none" points="854,789 855,788 " />
<polyline fill="none" vector-effect="none" points="855,788 857,786 " />
<polyline fill="none" vector-effect="none" points="857,786 858,785 " />
<polyline fill="none" vector-effect="none" points="858,785 859,783 " />
<polyline fill="none" vector-effect="none" points="859,783 860,781 " />
<polyline fill="none" vector-effect="none" points="860,781 860,779 " />
<polyline fill="none" vector-effect="none" points="860,779 860,777 " />
<polyline fill="none" vector-effect="none" points="860,777 860,775 " />
<polyline fill="none" vector-effect="none" points="860,775 860,774 " />
<polyline fill="none" vector-effect="none" points="860,774 860,772 " />
<polyline fill="none" vector-effect="none" points="860,772 861,770 " />
<polyline fill="none" vector-effect="none" points="861,770 862,769 " />
<polyline fill="none" vector-effect="none" points="862,769 864,767 " />
<polyline fill="none" vector-effect="none" points="864,767 865,766 " />
<polyline fill="none" vector-effect="none" points="865,766 867,765 " />
<polyline fill="none" vector-effect="none" points="867,765 868,765 " />
<polyline fill="none" vector-effect="none" points="868,765 870,765 " />
<polyline fill="none" vector-effect="none" points="870,765 872,764 " />
<polyline fill="none" vector-effect="none" points="872,764 874,764 " />
<polyline fill="none" vector-effect="none" points="874,764 875,763 " />
<polyline fill="none" vector-effect="none" points="875,763 877,762 " />
<polyline fill="none" vector-effect="none" points="877,762 879,760 " />
<polyline fill="none" vector-effect="none" points="879,760 880,759 " />
<polyline fill="none" vector-effect="none" points="880,759 880,757 " />
<polyline fill="none" vector-effect="none" points="880,757 884,755 " />
<polyline fill="none" vector-effect="none" points="884,755 886,754 " />
<polyline fill="none" vector-effect="none" points="886,754 889,753 " />
<polyline fill="none" vector-effect="none" points="889,753 893,753 " />
<polyline fill="none" vector-effect="none" points="893,753 896,751 " />
<polyline fill="none" vector-effect="none" points="896,751 899,747 " />
<polyline fill="none" vector-effect="none" points="899,747 897,743 " />
<polyline fill="none" vector-effect="none" points="897,743 894,741 " />
<polyline fill="none" vector-effect="none" points="894,741 890,740 " />
<polyline fill="none" vector-effect="none" points="890,740 886,739 " />
<polyline fill="none" vector-effect="none" points="886,739 884,739 " />
<polyline fill="none" vector-effect="none" points="884,739 883,738 " />
<polyline fill="none" vector-effect="none" points="883,738 881,738 " />
<polyline fill="none" vector-effect="none" points="881,738 879,738 " />
<polyline fill="none" vector-effect="none" points="879,738 877,737 " />
<polyline fill="none" vector-effect="none" points="877,737 876,737 " />
<polyline fill="none" vector-effect="none" points="876,737 874,736 " />
<polyline fill="none" vector-effect="none" points="874,736 872,736 " />
<polyline fill="none" vector-effect="none" points="872,736 871,734 " />
<polyline fill="none" vector-effect="none" points="871,734 869,733 " />
<polyline fill="none" vector-effect="none" points="869,733 868,732 " />
<polyline fill="none" vector-effect="none" points="868,732 866,731 " />
<polyline fill="none" vector-effect="none" points="866,731 865,729 " />
<polyline fill="none" vector-effect="none" points="865,729 865,727 " />
<polyline fill="none" vector-effect="none" points="865,727 864,725 " />
<polyline fill="none" vector-effect="none" points="864,725 863,724 " />
<polyline fill="none" vector-effect="none" points="863,724 863,722 " />
<polyline fill="none" vector-effect="none" points="863,722 862,720 " />
<polyline fill="none" vector-effect="none" points="862,720 862,718 " />
<polyline fill="none" vector-effect="none" points="862,718 861,716 " />
<polyline fill="none" vector-effect="none" points="861,716 860,715 " />
<polyline fill="none" vector-effect="none" points="860,715 859,713 " />
<polyline fill="none" vector-effect="none" points="859,713 858,712 " />
<polyline fill="none" vector-effect="none" points="858,712 857,710 " />
<polyline fill="none" vector-effect="none" points="857,710 856,708 " />
<polyline fill="none" vector-effect="none" points="856,708 855,707 " />
<polyline fill="none" vector-effect="none" points="855,707 854,706 " />
<polyline fill="none" vector-effect="none" points="854,706 852,705 " />
<polyline fill="none" vector-effect="none" points="852,705 850,705 " />
<polyline fill="none" vector-effect="none" points="850,705 848,704 " />
<polyline fill="none" vector-effect="none" points="848,704 846,705 " />
<polyline fill="none" vector-effect="none" points="846,705 844,705 " />
<polyline fill="none" vector-effect="none" points="844,705 840,706 " />
<polyline fill="none" vector-effect="none" points="840,706 837,703 " />
<polyline fill="none" vector-effect="none" points="837,703 835,699 " />
<polyline fill="none" vector-effect="none" points="835,699 838,694 " />
<polyline fill="none" vector-effect="none" points="838,694 838,691 " />
<polyline fill="none" vector-effect="none" points="838,691 838,688 " />
<polyline fill="none" vector-effect="none" points="838,688 838,686 " />
<polyline fill="none" vector-effect="none" points="838,686 838,685 " />
<polyline fill="none" vector-effect="none" points="838,685 838,683 " />
<polyline fill="none" vector-effect="none" points="838,683 835,680 " />
<polyline fill="none" vector-effect="none" points="835,680 833,679 " />
<polyline fill="none" vector-effect="none" points="833,679 832,678 " />
<polyline fill="none" vector-effect="none" points="832,678 829,676 " />
<polyline fill="none" vector-effect="none" points="829,676 827,676 " />
<polyline fill="none" vector-effect="none" points="827,676 826,675 " />
<polyline fill="none" vector-effect="none" points="826,675 824,674 " />
<polyline fill="none" vector-effect="none" points="824,674 823,673 " />
<polyline fill="none" vector-effect="none" points="823,673 820,670 " />
<polyline fill="none" vector-effect="none" points="820,670 819,669 " />
<polyline fill="none" vector-effect="none" points="819,669 818,668 " />
<polyline fill="none" vector-effect="none" points="818,668 814,667 " />
<polyline fill="none" vector-effect="none" points="814,667 810,666 " />
<polyline fill="none" vector-effect="none" points="810,666 807,665 " />
<polyline fill="none" vector-effect="none" points="807,665 803,664 " />
<polyline fill="none" vector-effect="none" points="803,664 802,663 " />
<polyline fill="none" vector-effect="none" points="802,663 800,661 " />
<polyline fill="none" vector-effect="none" points="800,661 800,659 " />
<polyline fill="none" vector-effect="none" points="800,659 799,657 " />
<polyline fill="none" vector-effect="none" points="799,657 798,656 " />
<polyline fill="none" vector-effect="none" points="798,656 798,655 " />
<polyline fill="none" vector-effect="none" points="798,655 797,653 " />
<polyline fill="none" vector-effect="none" points="797,653 795,651 " />
<polyline fill="none" vector-effect="none" points="795,651 794,649 " />
<polyline fill="none" vector-effect="none" points="794,649 793,648 " />
<polyline fill="none" vector-effect="none" points="793,648 790,645 " />
<polyline fill="none" vector-effect="none" points="790,645 787,643 " />
<polyline fill="none" vector-effect="none" points="787,643 784,640 " />
<polyline fill="none" vector-effect="none" points="784,640 782,639 " />
<polyline fill="none" vector-effect="none" points="782,639 781,638 " />
<polyline fill="none" vector-effect="none" points="781,638 779,637 " />
<polyline fill="none" vector-effect="none" points="779,637 778,636 " />
<polyline fill="none" vector-effect="none" points="778,636 776,635 " />
<polyline fill="none" vector-effect="none" points="776,635 775,634 " />
<polyline fill="none" vector-effect="none" points="775,634 773,633 " />
<polyline fill="none" vector-effect="none" points="773,633 771,633 " />
<polyline fill="none" vector-effect="none" points="771,633 768,632 " />
<polyline fill="none" vector-effect="none" points="768,632 766,632 " />
<polyline fill="none" vector-effect="none" points="766,632 763,632 " />
<polyline fill="none" vector-effect="none" points="763,632 761,630 " />
<polyline fill="none" vector-effect="none" points="761,630 759,628 " />
<polyline fill="none" vector-effect="none" points="759,628 758,620 " />
<polyline fill="none" vector-effect="none" points="758,620 757,618 " />
<polyline fill="none" vector-effect="none" points="757,618 756,616 " />
<polyline fill="none" vector-effect="none" points="756,616 754,615 " />
<polyline fill="none" vector-effect="none" points="754,615 753,614 " />
<polyline fill="none" vector-effect="none" points="753,614 751,613 " />
<polyline fill="none" vector-effect="none" points="751,613 750,613 " />
<polyline fill="none" vector-effect="none" points="750,613 748,613 " />
<polyline fill="none" vector-effect="none" points="748,613 745,613 " />
<polyline fill="none" vector-effect="none" points="745,613 743,615 " />
<polyline fill="none" vector-effect="none" points="743,615 740,617 " />
<polyline fill="none" vector-effect="none" points="740,617 737,619 " />
<polyline fill="none" vector-effect="none" points="737,619 734,623 " />
<polyline fill="none" vector-effect="none" points="734,623 731,626 " />
<polyline fill="none" vector-effect="none" points="731,626 728,626 " />
<polyline fill="none" vector-effect="none" points="728,626 724,629 " />
<polyline fill="none" vector-effect="none" points="724,629 722,632 " />
<polyline fill="none" vector-effect="none" points="722,632 720,634 " />
<polyline fill="none" vector-effect="none" points="720,634 719,636 " />
<polyline fill="none" vector-effect="none" points="719,636 718,637 " />
<polyline fill="none" vector-effect="none" points="718,637 717,639 " />
<polyline fill="none" vector-effect="none" points="717,639 716,641 " />
<polyline fill="none" vector-effect="none" points="716,641 715,643 " />
<polyline fill="none" vector-effect="none" points="715,643 714,645 " />
<polyline fill="none" vector-effect="none" points="714,645 713,646 " />
<polyline fill="none" vector-effect="none" points="713,646 712,648 " />
<polyline fill="none" vector-effect="none" points="712,648 711,650 " />
<polyline fill="none" vector-effect="none" points="711,650 710,652 " />
<polyline fill="none" vector-effect="none" points="710,652 708,653 " />
<polyline fill="none" vector-effect="none" points="708,653 707,654 " />
<polyline fill="none" vector-effect="none" points="707,654 705,654 " />
<polyline fill="none" vector-effect="none" points="705,654 703,655 " />
<polyline fill="none" vector-effect="none" points="703,655 701,655 " />
<polyline fill="none" vector-effect="none" points="701,655 699,655 " />
<polyline fill="none" vector-effect="none" points="699,655 697,655 " />
<polyline fill="none" vector-effect="none" points="697,655 695,655 " />
<polyline fill="none" vector-effect="none" points="695,655 693,655 " />
<polyline fill="none" vector-effect="none" points="693,655 692,656 " />
<polyline fill="none" vector-effect="none" points="692,656 690,656 " />
<polyline fill="none" vector-effect="none" points="690,656 688,657 " />
<polyline fill="none" vector-effect="none" points="688,657 685,660 " />
<polyline fill="none" vector-effect="none" points="685,660 682,662 " />
<polyline fill="none" vector-effect="none" points="682,662 680,666 " />
<polyline fill="none" vector-effect="none" points="680,666 678,667 " />
<polyline fill="none" vector-effect="none" points="678,667 677,668 " />
<polyline fill="none" vector-effect="none" points="677,668 675,671 " />
<polyline fill="none" vector-effect="none" points="675,671 674,672 " />
<polyline fill="none" vector-effect="none" points="674,672 674,674 " />
<polyline fill="none" vector-effect="none" points="674,674 674,676 " />
<polyline fill="none" vector-effect="none" points="674,676 673,678 " />
<polyline fill="none" vector-effect="none" points="673,678 674,681 " />
<polyline fill="none" vector-effect="none" points="674,681 675,685 " />
<polyline fill="none" vector-effect="none" points="675,685 675,689 " />
<polyline fill="none" vector-effect="none" points="675,689 674,693 " />
<polyline fill="none" vector-effect="none" points="674,693 671,696 " />
<polyline fill="none" vector-effect="none" points="671,696 668,698 " />
<polyline fill="none" vector-effect="none" points="668,698 664,698 " />
<polyline fill="none" vector-effect="none" points="664,698 660,698 " />
<polyline fill="none" vector-effect="none" points="660,698 656,696 " />
<polyline fill="none" vector-effect="none" points="656,696 655,695 " />
<polyline fill="none" vector-effect="none" points="655,695 653,695 " />
<polyline fill="none" vector-effect="none" points="653,695 650,692 " />
<polyline fill="none" vector-effect="none" points="650,692 649,691 " />
<polyline fill="none" vector-effect="none" points="649,691 648,689 " />
<polyline fill="none" vector-effect="none" points="648,689 645,687 " />
<polyline fill="none" vector-effect="none" points="645,687 643,686 " />
<polyline fill="none" vector-effect="none" points="643,686 640,686 " />
<polyline fill="none" vector-effect="none" points="640,686 639,687 " />
<polyline fill="none" vector-effect="none" points="639,687 637,688 " />
<polyline fill="none" vector-effect="none" points="637,688 634,692 " />
<polyline fill="none" vector-effect="none" points="634,692 634,694 " />
<polyline fill="none" vector-effect="none" points="634,694 634,695 " />
<polyline fill="none" vector-effect="none" points="634,695 636,699 " />
<polyline fill="none" vector-effect="none" points="636,699 639,701 " />
<polyline fill="none" vector-effect="none" points="639,701 642,703 " />
<polyline fill="none" vector-effect="none" points="642,703 646,704 " />
<polyline fill="none" vector-effect="none" points="646,704 650,704 " />
<polyline fill="none" vector-effect="none" points="650,704 654,705 " />
<polyline fill="none" vector-effect="none" points="654,705 657,707 " />
<polyline fill="none" vector-effect="none" points="657,707 658,709 " />
<polyline fill="none" vector-effect="none" points="658,709 659,710 " />
<polyline fill="none" vector-effect="none" points="659,710 661,714 " />
<polyline fill="none" vector-effect="none" points="661,714 660,716 " />
<polyline fill="none" vector-effect="none" points="660,716 660,718 " />
<polyline fill="none" vector-effect="none" points="660,718 659,721 " />
<polyline fill="none" vector-effect="none" points="659,721 651,723 " />
</g>
</g>
</svg>
