<?xml version="1.0" encoding="UTF-8" standalone="no"?>
<svg width="529.167mm" height="529.167mm"
 viewBox="0 0 1500 1500"
 xmlns="http://www.w3.org/2000/svg" xmlns:xlink="http://www.w3.org/1999/xlink"  version="1.2" baseProfile="tiny">
<title>Bizzare Labyrinth</title>
<desc>Time (seconds): 2.94204
Iteration: 1000
# Points: 427
f_b: 0.02
f_f: 0.15
f_a: 0.005
ar_clamp: 20
D: 1
sigma_l_j: 1
search_radius: 20
</desc>
<defs>
</defs>
<g fill="none" stroke="black" stroke-width="1" fill-rule="evenodd" stroke-linecap="square" stroke-linejoin="bevel" >

<g fill="none" stroke="#000000" stroke-opacity="1" stroke-width="1" stroke-linecap="square" stroke-linejoin="bevel" transform="matrix(1,0,0,1,0,0)"
font-family="Droid Sans" font-size="9.5" font-weight="400" font-style="normal" 
>
</g>

<g fill="none" stroke="#000000" stroke-opacity="1" stroke-width="1" stroke-linecap="square" stroke-linejoin="bevel" transform="matrix(1,0,0,1,0,0)"
font-family="Droid Sans" font-size="9.5" font-weight="400" font-style="normal" 
>
<polyline fill="none" vector-effect="none" points="840,690 839,686 " />
<polyline fill="none" vector-effect="none" points="839,686 837,682 " />
<polyline fill="none" vector-effect="none" points="837,682 835,679 " />
<polyline fill="none" vector-effect="none" points="835,679 832,677 " />
<polyline fill="none" vector-effect="none" points="832,677 831,676 " />
<polyline fill="none" vector-effect="none" points="831,676 829,675 " />
<polyline fill="none" vector-effect="none" points="829,675 823,673 " />
<polyline fill="none" vector-effect="none" points="823,673 821,671 " />
<polyline fill="none" vector-effect="none" points="821,671 820,670 " />
<polyline fill="none" vector-effect="none" points="820,670 818,670 " />
<polyline fill="none" vector-effect="none" points="818,670 817,669 " />
<polyline fill="none" vector-effect="none" points="817,669 813,666 " />
<polyline fill="none" vector-effect="none" points="813,666 811,665 " />
<polyline fill="none" vector-effect="none" points="811,665 809,664 " />
<polyline fill="none" vector-effect="none" points="809,664 804,664 " />
<polyline fill="none" vector-effect="none" points="804,664 800,662 " />
<polyline fill="none" vector-effect="none" points="800,662 796,659 " />
<polyline fill="none" vector-effect="none" points="796,659 794,655 " />
<polyline fill="none" vector-effect="none" points="794,655 793,652 " />
<polyline fill="none" vector-effect="none" points="793,652 793,648 " />
<polyline fill="none" vector-effect="none" points="793,648 793,645 " />
<polyline fill="none" vector-effect="none" points="793,645 794,641 " />
<polyline fill="none" vector-effect="none" points="794,641 793,637 " />
<polyline fill="none" vector-effect="none" points="793,637 793,633 " />
<polyline fill="none" vector-effect="none" points="793,633 791,632 " />
<polyline fill="none" vector-effect="none" points="791,632 790,630 " />
<polyline fill="none" vector-effect="none" points="790,630 788,630 " />
<polyline fill="none" vector-effect="none" points="788,630 785,629 " />
<polyline fill="none" vector-effect="none" points="785,629 784,630 " />
<polyline fill="none" vector-effect="none" points="784,630 782,631 " />
<polyline fill="none" vector-effect="none" points="782,631 780,632 " />
<polyline fill="none" vector-effect="none" points="780,632 779,633 " />
<polyline fill="none" vector-effect="none" points="779,633 778,634 " />
<polyline fill="none" vector-effect="none" points="778,634 777,636 " />
<polyline fill="none" vector-effect="none" points="777,636 775,637 " />
<polyline fill="none" vector-effect="none" points="775,637 773,638 " />
<polyline fill="none" vector-effect="none" points="773,638 771,638 " />
<polyline fill="none" vector-effect="none" points="771,638 769,638 " />
<polyline fill="none" vector-effect="none" points="769,638 767,637 " />
<polyline fill="none" vector-effect="none" points="767,637 766,637 " />
<polyline fill="none" vector-effect="none" points="766,637 764,635 " />
<polyline fill="none" vector-effect="none" points="764,635 763,633 " />
<polyline fill="none" vector-effect="none" points="763,633 761,630 " />
<polyline fill="none" vector-effect="none" points="761,630 761,626 " />
<polyline fill="none" vector-effect="none" points="761,626 761,624 " />
<polyline fill="none" vector-effect="none" points="761,624 761,622 " />
<polyline fill="none" vector-effect="none" points="761,622 762,620 " />
<polyline fill="none" vector-effect="none" points="762,620 763,619 " />
<polyline fill="none" vector-effect="none" points="763,619 764,617 " />
<polyline fill="none" vector-effect="none" points="764,617 764,615 " />
<polyline fill="none" vector-effect="none" points="764,615 764,613 " />
<polyline fill="none" vector-effect="none" points="764,613 763,611 " />
<polyline fill="none" vector-effect="none" points="763,611 762,610 " />
<polyline fill="none" vector-effect="none" points="762,610 761,608 " />
<polyline fill="none" vector-effect="none" points="761,608 760,607 " />
<polyline fill="none" vector-effect="none" points="760,607 758,606 " />
<polyline fill="none" vector-effect="none" points="758,606 756,605 " />
<polyline fill="none" vector-effect="none" points="756,605 754,604 " />
<polyline fill="none" vector-effect="none" points="754,604 750,605 " />
<polyline fill="none" vector-effect="none" points="750,605 747,607 " />
<polyline fill="none" vector-effect="none" points="747,607 744,609 " />
<polyline fill="none" vector-effect="none" points="744,609 743,611 " />
<polyline fill="none" vector-effect="none" points="743,611 742,613 " />
<polyline fill="none" vector-effect="none" points="742,613 741,615 " />
<polyline fill="none" vector-effect="none" points="741,615 741,616 " />
<polyline fill="none" vector-effect="none" points="741,616 740,619 " />
<polyline fill="none" vector-effect="none" points="740,619 737,622 " />
<polyline fill="none" vector-effect="none" points="737,622 734,625 " />
<polyline fill="none" vector-effect="none" points="734,625 731,626 " />
<polyline fill="none" vector-effect="none" points="731,626 727,627 " />
<polyline fill="none" vector-effect="none" points="727,627 724,629 " />
<polyline fill="none" vector-effect="none" points="724,629 721,630 " />
<polyline fill="none" vector-effect="none" points="721,630 718,634 " />
<polyline fill="none" vector-effect="none" points="718,634 716,637 " />
<polyline fill="none" vector-effect="none" points="716,637 717,641 " />
<polyline fill="none" vector-effect="none" points="717,641 717,645 " />
<polyline fill="none" vector-effect="none" points="717,645 718,648 " />
<polyline fill="none" vector-effect="none" points="718,648 718,653 " />
<polyline fill="none" vector-effect="none" points="718,653 717,656 " />
<polyline fill="none" vector-effect="none" points="717,656 711,658 " />
<polyline fill="none" vector-effect="none" points="711,658 709,658 " />
<polyline fill="none" vector-effect="none" points="709,658 707,658 " />
<polyline fill="none" vector-effect="none" points="707,658 706,658 " />
<polyline fill="none" vector-effect="none" points="706,658 704,658 " />
<polyline fill="none" vector-effect="none" points="704,658 702,658 " />
<polyline fill="none" vector-effect="none" points="702,658 700,658 " />
<polyline fill="none" vector-effect="none" points="700,658 698,658 " />
<polyline fill="none" vector-effect="none" points="698,658 696,657 " />
<polyline fill="none" vector-effect="none" points="696,657 695,658 " />
<polyline fill="none" vector-effect="none" points="695,658 693,658 " />
<polyline fill="none" vector-effect="none" points="693,658 689,659 " />
<polyline fill="none" vector-effect="none" points="689,659 686,661 " />
<polyline fill="none" vector-effect="none" points="686,661 682,664 " />
<polyline fill="none" vector-effect="none" points="682,664 680,666 " />
<polyline fill="none" vector-effect="none" points="680,666 676,669 " />
<polyline fill="none" vector-effect="none" points="676,669 674,671 " />
<polyline fill="none" vector-effect="none" points="674,671 672,673 " />
<polyline fill="none" vector-effect="none" points="672,673 671,675 " />
<polyline fill="none" vector-effect="none" points="671,675 668,679 " />
<polyline fill="none" vector-effect="none" points="668,679 667,681 " />
<polyline fill="none" vector-effect="none" points="667,681 665,683 " />
<polyline fill="none" vector-effect="none" points="665,683 664,685 " />
<polyline fill="none" vector-effect="none" points="664,685 662,686 " />
<polyline fill="none" vector-effect="none" points="662,686 661,687 " />
<polyline fill="none" vector-effect="none" points="661,687 659,689 " />
<polyline fill="none" vector-effect="none" points="659,689 658,690 " />
<polyline fill="none" vector-effect="none" points="658,690 656,691 " />
<polyline fill="none" vector-effect="none" points="656,691 655,692 " />
<polyline fill="none" vector-effect="none" points="655,692 654,694 " />
<polyline fill="none" vector-effect="none" points="654,694 652,695 " />
<polyline fill="none" vector-effect="none" points="652,695 652,697 " />
<polyline fill="none" vector-effect="none" points="652,697 651,699 " />
<polyline fill="none" vector-effect="none" points="651,699 650,700 " />
<polyline fill="none" vector-effect="none" points="650,700 649,702 " />
<polyline fill="none" vector-effect="none" points="649,702 648,704 " />
<polyline fill="none" vector-effect="none" points="648,704 647,706 " />
<polyline fill="none" vector-effect="none" points="647,706 647,708 " />
<polyline fill="none" vector-effect="none" points="647,708 646,709 " />
<polyline fill="none" vector-effect="none" points="646,709 646,711 " />
<polyline fill="none" vector-effect="none" points="646,711 646,713 " />
<polyline fill="none" vector-effect="none" points="646,713 645,715 " />
<polyline fill="none" vector-effect="none" points="645,715 645,717 " />
<polyline fill="none" vector-effect="none" points="645,717 644,719 " />
<polyline fill="none" vector-effect="none" points="644,719 643,720 " />
<polyline fill="none" vector-effect="none" points="643,720 642,722 " />
<polyline fill="none" vector-effect="none" points="642,722 640,723 " />
<polyline fill="none" vector-effect="none" points="640,723 638,723 " />
<polyline fill="none" vector-effect="none" points="638,723 636,724 " />
<polyline fill="none" vector-effect="none" points="636,724 634,724 " />
<polyline fill="none" vector-effect="none" points="634,724 633,724 " />
<polyline fill="none" vector-effect="none" points="633,724 631,725 " />
<polyline fill="none" vector-effect="none" points="631,725 629,726 " />
<polyline fill="none" vector-effect="none" points="629,726 628,727 " />
<polyline fill="none" vector-effect="none" points="628,727 626,729 " />
<polyline fill="none" vector-effect="none" points="626,729 626,731 " />
<polyline fill="none" vector-effect="none" points="626,731 627,733 " />
<polyline fill="none" vector-effect="none" points="627,733 627,735 " />
<polyline fill="none" vector-effect="none" points="627,735 628,737 " />
<polyline fill="none" vector-effect="none" points="628,737 629,738 " />
<polyline fill="none" vector-effect="none" points="629,738 630,740 " />
<polyline fill="none" vector-effect="none" points="630,740 630,742 " />
<polyline fill="none" vector-effect="none" points="630,742 631,744 " />
<polyline fill="none" vector-effect="none" points="631,744 630,746 " />
<polyline fill="none" vector-effect="none" points="630,746 629,747 " />
<polyline fill="none" vector-effect="none" points="629,747 628,749 " />
<polyline fill="none" vector-effect="none" points="628,749 626,751 " />
<polyline fill="none" vector-effect="none" points="626,751 625,751 " />
<polyline fill="none" vector-effect="none" points="625,751 623,752 " />
<polyline fill="none" vector-effect="none" points="623,752 621,753 " />
<polyline fill="none" vector-effect="none" points="621,753 620,754 " />
<polyline fill="none" vector-effect="none" points="620,754 618,754 " />
<polyline fill="none" vector-effect="none" points="618,754 616,754 " />
<polyline fill="none" vector-effect="none" points="616,754 613,755 " />
<polyline fill="none" vector-effect="none" points="613,755 610,755 " />
<polyline fill="none" vector-effect="none" points="610,755 606,757 " />
<polyline fill="none" vector-effect="none" points="606,757 603,759 " />
<polyline fill="none" vector-effect="none" points="603,759 603,766 " />
<polyline fill="none" vector-effect="none" points="603,766 606,769 " />
<polyline fill="none" vector-effect="none" points="606,769 607,769 " />
<polyline fill="none" vector-effect="none" points="607,769 609,770 " />
<polyline fill="none" vector-effect="none" points="609,770 611,771 " />
<polyline fill="none" vector-effect="none" points="611,771 612,772 " />
<polyline fill="none" vector-effect="none" points="612,772 614,773 " />
<polyline fill="none" vector-effect="none" points="614,773 615,775 " />
<polyline fill="none" vector-effect="none" points="615,775 617,775 " />
<polyline fill="none" vector-effect="none" points="617,775 619,775 " />
<polyline fill="none" vector-effect="none" points="619,775 621,774 " />
<polyline fill="none" vector-effect="none" points="621,774 623,773 " />
<polyline fill="none" vector-effect="none" points="623,773 626,770 " />
<polyline fill="none" vector-effect="none" points="626,770 627,768 " />
<polyline fill="none" vector-effect="none" points="627,768 629,766 " />
<polyline fill="none" vector-effect="none" points="629,766 630,763 " />
<polyline fill="none" vector-effect="none" points="630,763 632,761 " />
<polyline fill="none" vector-effect="none" points="632,761 634,756 " />
<polyline fill="none" vector-effect="none" points="634,756 637,752 " />
<polyline fill="none" vector-effect="none" points="637,752 641,749 " />
<polyline fill="none" vector-effect="none" points="641,749 643,749 " />
<polyline fill="none" vector-effect="none" points="643,749 644,750 " />
<polyline fill="none" vector-effect="none" points="644,750 646,751 " />
<polyline fill="none" vector-effect="none" points="646,751 648,752 " />
<polyline fill="none" vector-effect="none" points="648,752 649,753 " />
<polyline fill="none" vector-effect="none" points="649,753 651,754 " />
<polyline fill="none" vector-effect="none" points="651,754 652,756 " />
<polyline fill="none" vector-effect="none" points="652,756 653,757 " />
<polyline fill="none" vector-effect="none" points="653,757 653,759 " />
<polyline fill="none" vector-effect="none" points="653,759 653,761 " />
<polyline fill="none" vector-effect="none" points="653,761 652,763 " />
<polyline fill="none" vector-effect="none" points="652,763 652,765 " />
<polyline fill="none" vector-effect="none" points="652,765 650,766 " />
<polyline fill="none" vector-effect="none" points="650,766 649,767 " />
<polyline fill="none" vector-effect="none" points="649,767 647,768 " />
<polyline fill="none" vector-effect="none" points="647,768 645,768 " />
<polyline fill="none" vector-effect="none" points="645,768 643,769 " />
<polyline fill="none" vector-effect="none" points="643,769 641,769 " />
<polyline fill="none" vector-effect="none" points="641,769 639,770 " />
<polyline fill="none" vector-effect="none" points="639,770 638,771 " />
<polyline fill="none" vector-effect="none" points="638,771 637,772 " />
<polyline fill="none" vector-effect="none" points="637,772 635,774 " />
<polyline fill="none" vector-effect="none" points="635,774 634,776 " />
<polyline fill="none" vector-effect="none" points="634,776 632,777 " />
<polyline fill="none" vector-effect="none" points="632,777 630,780 " />
<polyline fill="none" vector-effect="none" points="630,780 627,782 " />
<polyline fill="none" vector-effect="none" points="627,782 627,784 " />
<polyline fill="none" vector-effect="none" points="627,784 626,786 " />
<polyline fill="none" vector-effect="none" points="626,786 627,789 " />
<polyline fill="none" vector-effect="none" points="627,789 631,792 " />
<polyline fill="none" vector-effect="none" points="631,792 634,792 " />
<polyline fill="none" vector-effect="none" points="634,792 636,791 " />
<polyline fill="none" vector-effect="none" points="636,791 637,790 " />
<polyline fill="none" vector-effect="none" points="637,790 639,789 " />
<polyline fill="none" vector-effect="none" points="639,789 640,788 " />
<polyline fill="none" vector-effect="none" points="640,788 642,787 " />
<polyline fill="none" vector-effect="none" points="642,787 644,787 " />
<polyline fill="none" vector-effect="none" points="644,787 646,787 " />
<polyline fill="none" vector-effect="none" points="646,787 650,789 " />
<polyline fill="none" vector-effect="none" points="650,789 653,792 " />
<polyline fill="none" vector-effect="none" points="653,792 654,795 " />
<polyline fill="none" vector-effect="none" points="654,795 657,798 " />
<polyline fill="none" vector-effect="none" points="657,798 658,800 " />
<polyline fill="none" vector-effect="none" points="658,800 660,802 " />
<polyline fill="none" vector-effect="none" points="660,802 662,804 " />
<polyline fill="none" vector-effect="none" points="662,804 664,805 " />
<polyline fill="none" vector-effect="none" points="664,805 665,806 " />
<polyline fill="none" vector-effect="none" points="665,806 667,807 " />
<polyline fill="none" vector-effect="none" points="667,807 669,808 " />
<polyline fill="none" vector-effect="none" points="669,808 671,808 " />
<polyline fill="none" vector-effect="none" points="671,808 673,809 " />
<polyline fill="none" vector-effect="none" points="673,809 675,809 " />
<polyline fill="none" vector-effect="none" points="675,809 676,810 " />
<polyline fill="none" vector-effect="none" points="676,810 678,812 " />
<polyline fill="none" vector-effect="none" points="678,812 679,813 " />
<polyline fill="none" vector-effect="none" points="679,813 680,814 " />
<polyline fill="none" vector-effect="none" points="680,814 680,816 " />
<polyline fill="none" vector-effect="none" points="680,816 681,818 " />
<polyline fill="none" vector-effect="none" points="681,818 681,820 " />
<polyline fill="none" vector-effect="none" points="681,820 681,822 " />
<polyline fill="none" vector-effect="none" points="681,822 680,824 " />
<polyline fill="none" vector-effect="none" points="680,824 679,826 " />
<polyline fill="none" vector-effect="none" points="679,826 677,827 " />
<polyline fill="none" vector-effect="none" points="677,827 676,828 " />
<polyline fill="none" vector-effect="none" points="676,828 674,829 " />
<polyline fill="none" vector-effect="none" points="674,829 672,831 " />
<polyline fill="none" vector-effect="none" points="672,831 671,832 " />
<polyline fill="none" vector-effect="none" points="671,832 670,833 " />
<polyline fill="none" vector-effect="none" points="670,833 670,835 " />
<polyline fill="none" vector-effect="none" points="670,835 670,837 " />
<polyline fill="none" vector-effect="none" points="670,837 670,839 " />
<polyline fill="none" vector-effect="none" points="670,839 670,841 " />
<polyline fill="none" vector-effect="none" points="670,841 671,843 " />
<polyline fill="none" vector-effect="none" points="671,843 671,845 " />
<polyline fill="none" vector-effect="none" points="671,845 673,846 " />
<polyline fill="none" vector-effect="none" points="673,846 675,847 " />
<polyline fill="none" vector-effect="none" points="675,847 677,847 " />
<polyline fill="none" vector-effect="none" points="677,847 679,848 " />
<polyline fill="none" vector-effect="none" points="679,848 681,846 " />
<polyline fill="none" vector-effect="none" points="681,846 684,844 " />
<polyline fill="none" vector-effect="none" points="684,844 684,840 " />
<polyline fill="none" vector-effect="none" points="684,840 685,837 " />
<polyline fill="none" vector-effect="none" points="685,837 686,833 " />
<polyline fill="none" vector-effect="none" points="686,833 689,831 " />
<polyline fill="none" vector-effect="none" points="689,831 693,829 " />
<polyline fill="none" vector-effect="none" points="693,829 695,829 " />
<polyline fill="none" vector-effect="none" points="695,829 698,829 " />
<polyline fill="none" vector-effect="none" points="698,829 700,829 " />
<polyline fill="none" vector-effect="none" points="700,829 703,830 " />
<polyline fill="none" vector-effect="none" points="703,830 705,831 " />
<polyline fill="none" vector-effect="none" points="705,831 706,833 " />
<polyline fill="none" vector-effect="none" points="706,833 707,834 " />
<polyline fill="none" vector-effect="none" points="707,834 708,838 " />
<polyline fill="none" vector-effect="none" points="708,838 707,840 " />
<polyline fill="none" vector-effect="none" points="707,840 706,841 " />
<polyline fill="none" vector-effect="none" points="706,841 705,843 " />
<polyline fill="none" vector-effect="none" points="705,843 704,845 " />
<polyline fill="none" vector-effect="none" points="704,845 703,848 " />
<polyline fill="none" vector-effect="none" points="703,848 703,852 " />
<polyline fill="none" vector-effect="none" points="703,852 704,856 " />
<polyline fill="none" vector-effect="none" points="704,856 705,859 " />
<polyline fill="none" vector-effect="none" points="705,859 708,863 " />
<polyline fill="none" vector-effect="none" points="708,863 710,863 " />
<polyline fill="none" vector-effect="none" points="710,863 712,864 " />
<polyline fill="none" vector-effect="none" points="712,864 715,863 " />
<polyline fill="none" vector-effect="none" points="715,863 719,863 " />
<polyline fill="none" vector-effect="none" points="719,863 723,864 " />
<polyline fill="none" vector-effect="none" points="723,864 727,864 " />
<polyline fill="none" vector-effect="none" points="727,864 730,867 " />
<polyline fill="none" vector-effect="none" points="730,867 731,868 " />
<polyline fill="none" vector-effect="none" points="731,868 732,870 " />
<polyline fill="none" vector-effect="none" points="732,870 735,872 " />
<polyline fill="none" vector-effect="none" points="735,872 737,874 " />
<polyline fill="none" vector-effect="none" points="737,874 741,877 " />
<polyline fill="none" vector-effect="none" points="741,877 746,880 " />
<polyline fill="none" vector-effect="none" points="746,880 747,882 " />
<polyline fill="none" vector-effect="none" points="747,882 748,884 " />
<polyline fill="none" vector-effect="none" points="748,884 748,885 " />
<polyline fill="none" vector-effect="none" points="748,885 748,887 " />
<polyline fill="none" vector-effect="none" points="748,887 749,889 " />
<polyline fill="none" vector-effect="none" points="749,889 750,891 " />
<polyline fill="none" vector-effect="none" points="750,891 752,892 " />
<polyline fill="none" vector-effect="none" points="752,892 754,893 " />
<polyline fill="none" vector-effect="none" points="754,893 756,893 " />
<polyline fill="none" vector-effect="none" points="756,893 758,892 " />
<polyline fill="none" vector-effect="none" points="758,892 759,891 " />
<polyline fill="none" vector-effect="none" points="759,891 760,889 " />
<polyline fill="none" vector-effect="none" points="760,889 762,886 " />
<polyline fill="none" vector-effect="none" points="762,886 762,884 " />
<polyline fill="none" vector-effect="none" points="762,884 762,882 " />
<polyline fill="none" vector-effect="none" points="762,882 762,880 " />
<polyline fill="none" vector-effect="none" points="762,880 761,878 " />
<polyline fill="none" vector-effect="none" points="761,878 762,876 " />
<polyline fill="none" vector-effect="none" points="762,876 762,875 " />
<polyline fill="none" vector-effect="none" points="762,875 763,873 " />
<polyline fill="none" vector-effect="none" points="763,873 764,871 " />
<polyline fill="none" vector-effect="none" points="764,871 765,870 " />
<polyline fill="none" vector-effect="none" points="765,870 766,868 " />
<polyline fill="none" vector-effect="none" points="766,868 768,867 " />
<polyline fill="none" vector-effect="none" points="768,867 770,867 " />
<polyline fill="none" vector-effect="none" points="770,867 772,866 " />
<polyline fill="none" vector-effect="none" points="772,866 774,866 " />
<polyline fill="none" vector-effect="none" points="774,866 776,865 " />
<polyline fill="none" vector-effect="none" points="776,865 777,865 " />
<polyline fill="none" vector-effect="none" points="777,865 779,863 " />
<polyline fill="none" vector-effect="none" points="779,863 780,862 " />
<polyline fill="none" vector-effect="none" points="780,862 781,860 " />
<polyline fill="none" vector-effect="none" points="781,860 782,859 " />
<polyline fill="none" vector-effect="none" points="782,859 783,857 " />
<polyline fill="none" vector-effect="none" points="783,857 784,855 " />
<polyline fill="none" vector-effect="none" points="784,855 785,854 " />
<polyline fill="none" vector-effect="none" points="785,854 787,853 " />
<polyline fill="none" vector-effect="none" points="787,853 788,851 " />
<polyline fill="none" vector-effect="none" points="788,851 789,850 " />
<polyline fill="none" vector-effect="none" points="789,850 791,849 " />
<polyline fill="none" vector-effect="none" points="791,849 793,848 " />
<polyline fill="none" vector-effect="none" points="793,848 794,847 " />
<polyline fill="none" vector-effect="none" points="794,847 796,846 " />
<polyline fill="none" vector-effect="none" points="796,846 798,845 " />
<polyline fill="none" vector-effect="none" points="798,845 799,845 " />
<polyline fill="none" vector-effect="none" points="799,845 801,844 " />
<polyline fill="none" vector-effect="none" points="801,844 803,843 " />
<polyline fill="none" vector-effect="none" points="803,843 805,842 " />
<polyline fill="none" vector-effect="none" points="805,842 806,842 " />
<polyline fill="none" vector-effect="none" points="806,842 811,841 " />
<polyline fill="none" vector-effect="none" points="811,841 812,841 " />
<polyline fill="none" vector-effect="none" points="812,841 814,840 " />
<polyline fill="none" vector-effect="none" points="814,840 818,840 " />
<polyline fill="none" vector-effect="none" points="818,840 822,838 " />
<polyline fill="none" vector-effect="none" points="822,838 824,834 " />
<polyline fill="none" vector-effect="none" points="824,834 823,830 " />
<polyline fill="none" vector-effect="none" points="823,830 822,826 " />
<polyline fill="none" vector-effect="none" points="822,826 819,823 " />
<polyline fill="none" vector-effect="none" points="819,823 818,819 " />
<polyline fill="none" vector-effect="none" points="818,819 819,817 " />
<polyline fill="none" vector-effect="none" points="819,817 819,815 " />
<polyline fill="none" vector-effect="none" points="819,815 821,811 " />
<polyline fill="none" vector-effect="none" points="821,811 823,809 " />
<polyline fill="none" vector-effect="none" points="823,809 825,807 " />
<polyline fill="none" vector-effect="none" points="825,807 828,807 " />
<polyline fill="none" vector-effect="none" points="828,807 832,808 " />
<polyline fill="none" vector-effect="none" points="832,808 833,808 " />
<polyline fill="none" vector-effect="none" points="833,808 835,809 " />
<polyline fill="none" vector-effect="none" points="835,809 838,812 " />
<polyline fill="none" vector-effect="none" points="838,812 838,814 " />
<polyline fill="none" vector-effect="none" points="838,814 838,815 " />
<polyline fill="none" vector-effect="none" points="838,815 839,817 " />
<polyline fill="none" vector-effect="none" points="839,817 840,819 " />
<polyline fill="none" vector-effect="none" points="840,819 846,820 " />
<polyline fill="none" vector-effect="none" points="846,820 848,819 " />
<polyline fill="none" vector-effect="none" points="848,819 850,818 " />
<polyline fill="none" vector-effect="none" points="850,818 851,816 " />
<polyline fill="none" vector-effect="none" points="851,816 852,815 " />
<polyline fill="none" vector-effect="none" points="852,815 852,813 " />
<polyline fill="none" vector-effect="none" points="852,813 852,811 " />
<polyline fill="none" vector-effect="none" points="852,811 851,809 " />
<polyline fill="none" vector-effect="none" points="851,809 850,807 " />
<polyline fill="none" vector-effect="none" points="850,807 848,805 " />
<polyline fill="none" vector-effect="none" points="848,805 845,802 " />
<polyline fill="none" vector-effect="none" points="845,802 844,798 " />
<polyline fill="none" vector-effect="none" points="844,798 844,794 " />
<polyline fill="none" vector-effect="none" points="844,794 845,790 " />
<polyline fill="none" vector-effect="none" points="845,790 848,787 " />
<polyline fill="none" vector-effect="none" points="848,787 849,786 " />
<polyline fill="none" vector-effect="none" points="849,786 850,785 " />
<polyline fill="none" vector-effect="none" points="850,785 853,782 " />
<polyline fill="none" vector-effect="none" points="853,782 855,781 " />
<polyline fill="none" vector-effect="none" points="855,781 856,780 " />
<polyline fill="none" vector-effect="none" points="856,780 858,779 " />
<polyline fill="none" vector-effect="none" points="858,779 859,778 " />
<polyline fill="none" vector-effect="none" points="859,778 861,777 " />
<polyline fill="none" vector-effect="none" points="861,777 862,776 " />
<polyline fill="none" vector-effect="none" points="862,776 864,775 " />
<polyline fill="none" vector-effect="none" points="864,775 869,771 " />
<polyline fill="none" vector-effect="none" points="869,771 872,770 " />
<polyline fill="none" vector-effect="none" points="872,770 876,767 " />
<polyline fill="none" vector-effect="none" points="876,767 879,765 " />
<polyline fill="none" vector-effect="none" points="879,765 883,764 " />
<polyline fill="none" vector-effect="none" points="883,764 887,762 " />
<polyline fill="none" vector-effect="none" points="887,762 890,761 " />
<polyline fill="none" vector-effect="none" points="890,761 892,755 " />
<polyline fill="none" vector-effect="none" points="892,755 892,751 " />
<polyline fill="none" vector-effect="none" points="892,751 890,750 " />
<polyline fill="none" vector-effect="none" points="890,750 888,749 " />
<polyline fill="none" vector-effect="none" points="888,749 887,748 " />
<polyline fill="none" vector-effect="none" points="887,748 885,748 " />
<polyline fill="none" vector-effect="none" points="885,748 881,747 " />
<polyline fill="none" vector-effect="none" points="881,747 878,745 " />
<polyline fill="none" vector-effect="none" points="878,745 875,742 " />
<polyline fill="none" vector-effect="none" points="875,742 874,738 " />
<polyline fill="none" vector-effect="none" points="874,738 874,734 " />
<polyline fill="none" vector-effect="none" points="874,734 873,732 " />
<polyline fill="none" vector-effect="none" points="873,732 873,730 " />
<polyline fill="none" vector-effect="none" points="873,730 873,728 " />
<polyline fill="none" vector-effect="none" points="873,728 872,727 " />
<polyline fill="none" vector-effect="none" points="872,727 870,724 " />
<polyline fill="none" vector-effect="none" points="870,724 868,723 " />
<polyline fill="none" vector-effect="none" points="868,723 866,722 " />
<polyline fill="none" vector-effect="none" points="866,722 864,721 " />
<polyline fill="none" vector-effect="none" points="864,721 863,720 " />
<polyline fill="none" vector-effect="none" points="863,720 859,718 " />
<polyline fill="none" vector-effect="none" points="859,718 858,716 " />
<polyline fill="none" vector-effect="none" points="858,716 856,715 " />
<polyline fill="none" vector-effect="none" points="856,715 855,714 " />
<polyline fill="none" vector-effect="none" points="855,714 853,713 " />
<polyline fill="none" vector-effect="none" points="853,713 850,710 " />
<polyline fill="none" vector-effect="none" points="850,710 848,708 " />
<polyline fill="none" vector-effect="none" points="848,708 847,706 " />
<polyline fill="none" vector-effect="none" points="847,706 845,704 " />
<polyline fill="none" vector-effect="none" points="845,704 843,699 " />
<polyline fill="none" vector-effect="none" points="843,699 840,690 " />
</g>
</g>
</svg>
