<?xml version="1.0" encoding="UTF-8" standalone="no"?>
<svg width="529.167mm" height="529.167mm"
 viewBox="0 0 1500 1500"
 xmlns="http://www.w3.org/2000/svg" xmlns:xlink="http://www.w3.org/1999/xlink"  version="1.2" baseProfile="tiny">
<title>Bizzare Labyrinth</title>
<desc>Time (seconds): 1.33251
Iteration: 500
# Points: 306
f_b: 0.02
f_f: 0.15
f_a: 0.005
ar_clamp: 20
D: 1
sigma_l_j: 1
search_radius: 20
</desc>
<defs>
</defs>
<g fill="none" stroke="black" stroke-width="1" fill-rule="evenodd" stroke-linecap="square" stroke-linejoin="bevel" >

<g fill="none" stroke="#000000" stroke-opacity="1" stroke-width="1" stroke-linecap="square" stroke-linejoin="bevel" transform="matrix(1,0,0,1,0,0)"
font-family="Droid Sans" font-size="9.5" font-weight="400" font-style="normal" 
>
</g>

<g fill="none" stroke="#000000" stroke-opacity="1" stroke-width="1" stroke-linecap="square" stroke-linejoin="bevel" transform="matrix(1,0,0,1,0,0)"
font-family="Droid Sans" font-size="9.5" font-weight="400" font-style="normal" 
>
<polyline fill="none" vector-effect="none" points="615,755 614,759 " />
<polyline fill="none" vector-effect="none" points="614,759 615,761 " />
<polyline fill="none" vector-effect="none" points="615,761 615,763 " />
<polyline fill="none" vector-effect="none" points="615,763 619,766 " />
<polyline fill="none" vector-effect="none" points="619,766 622,767 " />
<polyline fill="none" vector-effect="none" points="622,767 626,766 " />
<polyline fill="none" vector-effect="none" points="626,766 630,763 " />
<polyline fill="none" vector-effect="none" points="630,763 633,763 " />
<polyline fill="none" vector-effect="none" points="633,763 637,763 " />
<polyline fill="none" vector-effect="none" points="637,763 640,766 " />
<polyline fill="none" vector-effect="none" points="640,766 642,770 " />
<polyline fill="none" vector-effect="none" points="642,770 640,773 " />
<polyline fill="none" vector-effect="none" points="640,773 639,777 " />
<polyline fill="none" vector-effect="none" points="639,777 638,780 " />
<polyline fill="none" vector-effect="none" points="638,780 638,785 " />
<polyline fill="none" vector-effect="none" points="638,785 641,788 " />
<polyline fill="none" vector-effect="none" points="641,788 644,790 " />
<polyline fill="none" vector-effect="none" points="644,790 648,791 " />
<polyline fill="none" vector-effect="none" points="648,791 651,793 " />
<polyline fill="none" vector-effect="none" points="651,793 654,795 " />
<polyline fill="none" vector-effect="none" points="654,795 656,798 " />
<polyline fill="none" vector-effect="none" points="656,798 657,800 " />
<polyline fill="none" vector-effect="none" points="657,800 658,802 " />
<polyline fill="none" vector-effect="none" points="658,802 659,804 " />
<polyline fill="none" vector-effect="none" points="659,804 659,806 " />
<polyline fill="none" vector-effect="none" points="659,806 662,808 " />
<polyline fill="none" vector-effect="none" points="662,808 664,809 " />
<polyline fill="none" vector-effect="none" points="664,809 665,810 " />
<polyline fill="none" vector-effect="none" points="665,810 667,811 " />
<polyline fill="none" vector-effect="none" points="667,811 669,811 " />
<polyline fill="none" vector-effect="none" points="669,811 672,814 " />
<polyline fill="none" vector-effect="none" points="672,814 673,815 " />
<polyline fill="none" vector-effect="none" points="673,815 675,816 " />
<polyline fill="none" vector-effect="none" points="675,816 675,819 " />
<polyline fill="none" vector-effect="none" points="675,819 675,821 " />
<polyline fill="none" vector-effect="none" points="675,821 674,823 " />
<polyline fill="none" vector-effect="none" points="674,823 674,824 " />
<polyline fill="none" vector-effect="none" points="674,824 674,826 " />
<polyline fill="none" vector-effect="none" points="674,826 674,828 " />
<polyline fill="none" vector-effect="none" points="674,828 674,830 " />
<polyline fill="none" vector-effect="none" points="674,830 674,832 " />
<polyline fill="none" vector-effect="none" points="674,832 674,833 " />
<polyline fill="none" vector-effect="none" points="674,833 675,835 " />
<polyline fill="none" vector-effect="none" points="675,835 677,837 " />
<polyline fill="none" vector-effect="none" points="677,837 678,838 " />
<polyline fill="none" vector-effect="none" points="678,838 681,839 " />
<polyline fill="none" vector-effect="none" points="681,839 683,839 " />
<polyline fill="none" vector-effect="none" points="683,839 685,839 " />
<polyline fill="none" vector-effect="none" points="685,839 687,838 " />
<polyline fill="none" vector-effect="none" points="687,838 688,838 " />
<polyline fill="none" vector-effect="none" points="688,838 690,838 " />
<polyline fill="none" vector-effect="none" points="690,838 692,839 " />
<polyline fill="none" vector-effect="none" points="692,839 694,839 " />
<polyline fill="none" vector-effect="none" points="694,839 696,839 " />
<polyline fill="none" vector-effect="none" points="696,839 697,840 " />
<polyline fill="none" vector-effect="none" points="697,840 699,840 " />
<polyline fill="none" vector-effect="none" points="699,840 701,841 " />
<polyline fill="none" vector-effect="none" points="701,841 702,842 " />
<polyline fill="none" vector-effect="none" points="702,842 703,844 " />
<polyline fill="none" vector-effect="none" points="703,844 705,847 " />
<polyline fill="none" vector-effect="none" points="705,847 705,850 " />
<polyline fill="none" vector-effect="none" points="705,850 706,853 " />
<polyline fill="none" vector-effect="none" points="706,853 706,855 " />
<polyline fill="none" vector-effect="none" points="706,855 707,857 " />
<polyline fill="none" vector-effect="none" points="707,857 709,858 " />
<polyline fill="none" vector-effect="none" points="709,858 711,859 " />
<polyline fill="none" vector-effect="none" points="711,859 713,859 " />
<polyline fill="none" vector-effect="none" points="713,859 714,860 " />
<polyline fill="none" vector-effect="none" points="714,860 716,860 " />
<polyline fill="none" vector-effect="none" points="716,860 718,860 " />
<polyline fill="none" vector-effect="none" points="718,860 720,861 " />
<polyline fill="none" vector-effect="none" points="720,861 722,862 " />
<polyline fill="none" vector-effect="none" points="722,862 723,863 " />
<polyline fill="none" vector-effect="none" points="723,863 725,864 " />
<polyline fill="none" vector-effect="none" points="725,864 727,865 " />
<polyline fill="none" vector-effect="none" points="727,865 728,866 " />
<polyline fill="none" vector-effect="none" points="728,866 729,867 " />
<polyline fill="none" vector-effect="none" points="729,867 730,869 " />
<polyline fill="none" vector-effect="none" points="730,869 731,870 " />
<polyline fill="none" vector-effect="none" points="731,870 732,872 " />
<polyline fill="none" vector-effect="none" points="732,872 733,873 " />
<polyline fill="none" vector-effect="none" points="733,873 735,875 " />
<polyline fill="none" vector-effect="none" points="735,875 736,876 " />
<polyline fill="none" vector-effect="none" points="736,876 738,877 " />
<polyline fill="none" vector-effect="none" points="738,877 740,878 " />
<polyline fill="none" vector-effect="none" points="740,878 741,879 " />
<polyline fill="none" vector-effect="none" points="741,879 743,880 " />
<polyline fill="none" vector-effect="none" points="743,880 744,882 " />
<polyline fill="none" vector-effect="none" points="744,882 746,882 " />
<polyline fill="none" vector-effect="none" points="746,882 748,883 " />
<polyline fill="none" vector-effect="none" points="748,883 749,884 " />
<polyline fill="none" vector-effect="none" points="749,884 751,885 " />
<polyline fill="none" vector-effect="none" points="751,885 753,884 " />
<polyline fill="none" vector-effect="none" points="753,884 755,884 " />
<polyline fill="none" vector-effect="none" points="755,884 757,883 " />
<polyline fill="none" vector-effect="none" points="757,883 759,882 " />
<polyline fill="none" vector-effect="none" points="759,882 760,881 " />
<polyline fill="none" vector-effect="none" points="760,881 761,880 " />
<polyline fill="none" vector-effect="none" points="761,880 763,878 " />
<polyline fill="none" vector-effect="none" points="763,878 764,877 " />
<polyline fill="none" vector-effect="none" points="764,877 765,875 " />
<polyline fill="none" vector-effect="none" points="765,875 767,874 " />
<polyline fill="none" vector-effect="none" points="767,874 768,872 " />
<polyline fill="none" vector-effect="none" points="768,872 770,871 " />
<polyline fill="none" vector-effect="none" points="770,871 771,870 " />
<polyline fill="none" vector-effect="none" points="771,870 772,868 " />
<polyline fill="none" vector-effect="none" points="772,868 774,867 " />
<polyline fill="none" vector-effect="none" points="774,867 775,866 " />
<polyline fill="none" vector-effect="none" points="775,866 776,865 " />
<polyline fill="none" vector-effect="none" points="776,865 777,863 " />
<polyline fill="none" vector-effect="none" points="777,863 779,862 " />
<polyline fill="none" vector-effect="none" points="779,862 780,861 " />
<polyline fill="none" vector-effect="none" points="780,861 783,859 " />
<polyline fill="none" vector-effect="none" points="783,859 785,857 " />
<polyline fill="none" vector-effect="none" points="785,857 787,856 " />
<polyline fill="none" vector-effect="none" points="787,856 789,854 " />
<polyline fill="none" vector-effect="none" points="789,854 791,851 " />
<polyline fill="none" vector-effect="none" points="791,851 795,848 " />
<polyline fill="none" vector-effect="none" points="795,848 797,846 " />
<polyline fill="none" vector-effect="none" points="797,846 799,844 " />
<polyline fill="none" vector-effect="none" points="799,844 800,843 " />
<polyline fill="none" vector-effect="none" points="800,843 802,842 " />
<polyline fill="none" vector-effect="none" points="802,842 803,841 " />
<polyline fill="none" vector-effect="none" points="803,841 805,840 " />
<polyline fill="none" vector-effect="none" points="805,840 807,839 " />
<polyline fill="none" vector-effect="none" points="807,839 808,838 " />
<polyline fill="none" vector-effect="none" points="808,838 810,838 " />
<polyline fill="none" vector-effect="none" points="810,838 812,837 " />
<polyline fill="none" vector-effect="none" points="812,837 814,836 " />
<polyline fill="none" vector-effect="none" points="814,836 817,834 " />
<polyline fill="none" vector-effect="none" points="817,834 820,831 " />
<polyline fill="none" vector-effect="none" points="820,831 822,828 " />
<polyline fill="none" vector-effect="none" points="822,828 823,824 " />
<polyline fill="none" vector-effect="none" points="823,824 825,821 " />
<polyline fill="none" vector-effect="none" points="825,821 826,817 " />
<polyline fill="none" vector-effect="none" points="826,817 829,815 " />
<polyline fill="none" vector-effect="none" points="829,815 832,812 " />
<polyline fill="none" vector-effect="none" points="832,812 835,810 " />
<polyline fill="none" vector-effect="none" points="835,810 839,809 " />
<polyline fill="none" vector-effect="none" points="839,809 840,808 " />
<polyline fill="none" vector-effect="none" points="840,808 842,807 " />
<polyline fill="none" vector-effect="none" points="842,807 843,806 " />
<polyline fill="none" vector-effect="none" points="843,806 845,805 " />
<polyline fill="none" vector-effect="none" points="845,805 846,803 " />
<polyline fill="none" vector-effect="none" points="846,803 846,801 " />
<polyline fill="none" vector-effect="none" points="846,801 847,800 " />
<polyline fill="none" vector-effect="none" points="847,800 848,798 " />
<polyline fill="none" vector-effect="none" points="848,798 849,796 " />
<polyline fill="none" vector-effect="none" points="849,796 850,795 " />
<polyline fill="none" vector-effect="none" points="850,795 850,793 " />
<polyline fill="none" vector-effect="none" points="850,793 851,791 " />
<polyline fill="none" vector-effect="none" points="851,791 851,789 " />
<polyline fill="none" vector-effect="none" points="851,789 851,788 " />
<polyline fill="none" vector-effect="none" points="851,788 854,785 " />
<polyline fill="none" vector-effect="none" points="854,785 856,782 " />
<polyline fill="none" vector-effect="none" points="856,782 858,779 " />
<polyline fill="none" vector-effect="none" points="858,779 860,777 " />
<polyline fill="none" vector-effect="none" points="860,777 862,774 " />
<polyline fill="none" vector-effect="none" points="862,774 866,772 " />
<polyline fill="none" vector-effect="none" points="866,772 871,769 " />
<polyline fill="none" vector-effect="none" points="871,769 873,768 " />
<polyline fill="none" vector-effect="none" points="873,768 874,766 " />
<polyline fill="none" vector-effect="none" points="874,766 876,766 " />
<polyline fill="none" vector-effect="none" points="876,766 878,765 " />
<polyline fill="none" vector-effect="none" points="878,765 881,763 " />
<polyline fill="none" vector-effect="none" points="881,763 881,761 " />
<polyline fill="none" vector-effect="none" points="881,761 882,759 " />
<polyline fill="none" vector-effect="none" points="882,759 882,755 " />
<polyline fill="none" vector-effect="none" points="882,755 882,751 " />
<polyline fill="none" vector-effect="none" points="882,751 880,748 " />
<polyline fill="none" vector-effect="none" points="880,748 879,745 " />
<polyline fill="none" vector-effect="none" points="879,745 878,743 " />
<polyline fill="none" vector-effect="none" points="878,743 877,740 " />
<polyline fill="none" vector-effect="none" points="877,740 875,737 " />
<polyline fill="none" vector-effect="none" points="875,737 875,733 " />
<polyline fill="none" vector-effect="none" points="875,733 874,732 " />
<polyline fill="none" vector-effect="none" points="874,732 873,730 " />
<polyline fill="none" vector-effect="none" points="873,730 870,727 " />
<polyline fill="none" vector-effect="none" points="870,727 868,724 " />
<polyline fill="none" vector-effect="none" points="868,724 865,721 " />
<polyline fill="none" vector-effect="none" points="865,721 862,719 " />
<polyline fill="none" vector-effect="none" points="862,719 860,716 " />
<polyline fill="none" vector-effect="none" points="860,716 857,714 " />
<polyline fill="none" vector-effect="none" points="857,714 854,711 " />
<polyline fill="none" vector-effect="none" points="854,711 851,709 " />
<polyline fill="none" vector-effect="none" points="851,709 848,706 " />
<polyline fill="none" vector-effect="none" points="848,706 847,702 " />
<polyline fill="none" vector-effect="none" points="847,702 844,699 " />
<polyline fill="none" vector-effect="none" points="844,699 843,696 " />
<polyline fill="none" vector-effect="none" points="843,696 840,694 " />
<polyline fill="none" vector-effect="none" points="840,694 837,690 " />
<polyline fill="none" vector-effect="none" points="837,690 836,687 " />
<polyline fill="none" vector-effect="none" points="836,687 833,684 " />
<polyline fill="none" vector-effect="none" points="833,684 832,683 " />
<polyline fill="none" vector-effect="none" points="832,683 831,681 " />
<polyline fill="none" vector-effect="none" points="831,681 830,680 " />
<polyline fill="none" vector-effect="none" points="830,680 829,679 " />
<polyline fill="none" vector-effect="none" points="829,679 827,678 " />
<polyline fill="none" vector-effect="none" points="827,678 826,676 " />
<polyline fill="none" vector-effect="none" points="826,676 825,675 " />
<polyline fill="none" vector-effect="none" points="825,675 824,674 " />
<polyline fill="none" vector-effect="none" points="824,674 821,672 " />
<polyline fill="none" vector-effect="none" points="821,672 818,670 " />
<polyline fill="none" vector-effect="none" points="818,670 816,668 " />
<polyline fill="none" vector-effect="none" points="816,668 811,664 " />
<polyline fill="none" vector-effect="none" points="811,664 809,663 " />
<polyline fill="none" vector-effect="none" points="809,663 808,662 " />
<polyline fill="none" vector-effect="none" points="808,662 806,661 " />
<polyline fill="none" vector-effect="none" points="806,661 804,660 " />
<polyline fill="none" vector-effect="none" points="804,660 801,657 " />
<polyline fill="none" vector-effect="none" points="801,657 800,656 " />
<polyline fill="none" vector-effect="none" points="800,656 799,654 " />
<polyline fill="none" vector-effect="none" points="799,654 796,652 " />
<polyline fill="none" vector-effect="none" points="796,652 793,649 " />
<polyline fill="none" vector-effect="none" points="793,649 792,647 " />
<polyline fill="none" vector-effect="none" points="792,647 791,646 " />
<polyline fill="none" vector-effect="none" points="791,646 789,643 " />
<polyline fill="none" vector-effect="none" points="789,643 786,640 " />
<polyline fill="none" vector-effect="none" points="786,640 783,638 " />
<polyline fill="none" vector-effect="none" points="783,638 780,635 " />
<polyline fill="none" vector-effect="none" points="780,635 778,635 " />
<polyline fill="none" vector-effect="none" points="778,635 776,634 " />
<polyline fill="none" vector-effect="none" points="776,634 774,633 " />
<polyline fill="none" vector-effect="none" points="774,633 773,632 " />
<polyline fill="none" vector-effect="none" points="773,632 771,631 " />
<polyline fill="none" vector-effect="none" points="771,631 770,630 " />
<polyline fill="none" vector-effect="none" points="770,630 767,628 " />
<polyline fill="none" vector-effect="none" points="767,628 765,626 " />
<polyline fill="none" vector-effect="none" points="765,626 764,625 " />
<polyline fill="none" vector-effect="none" points="764,625 763,623 " />
<polyline fill="none" vector-effect="none" points="763,623 761,622 " />
<polyline fill="none" vector-effect="none" points="761,622 760,620 " />
<polyline fill="none" vector-effect="none" points="760,620 759,619 " />
<polyline fill="none" vector-effect="none" points="759,619 758,618 " />
<polyline fill="none" vector-effect="none" points="758,618 756,617 " />
<polyline fill="none" vector-effect="none" points="756,617 754,616 " />
<polyline fill="none" vector-effect="none" points="754,616 753,615 " />
<polyline fill="none" vector-effect="none" points="753,615 751,615 " />
<polyline fill="none" vector-effect="none" points="751,615 749,615 " />
<polyline fill="none" vector-effect="none" points="749,615 745,617 " />
<polyline fill="none" vector-effect="none" points="745,617 744,618 " />
<polyline fill="none" vector-effect="none" points="744,618 742,619 " />
<polyline fill="none" vector-effect="none" points="742,619 738,620 " />
<polyline fill="none" vector-effect="none" points="738,620 735,622 " />
<polyline fill="none" vector-effect="none" points="735,622 733,623 " />
<polyline fill="none" vector-effect="none" points="733,623 731,625 " />
<polyline fill="none" vector-effect="none" points="731,625 727,627 " />
<polyline fill="none" vector-effect="none" points="727,627 724,629 " />
<polyline fill="none" vector-effect="none" points="724,629 722,632 " />
<polyline fill="none" vector-effect="none" points="722,632 719,635 " />
<polyline fill="none" vector-effect="none" points="719,635 717,638 " />
<polyline fill="none" vector-effect="none" points="717,638 715,641 " />
<polyline fill="none" vector-effect="none" points="715,641 714,645 " />
<polyline fill="none" vector-effect="none" points="714,645 712,648 " />
<polyline fill="none" vector-effect="none" points="712,648 709,653 " />
<polyline fill="none" vector-effect="none" points="709,653 705,655 " />
<polyline fill="none" vector-effect="none" points="705,655 702,656 " />
<polyline fill="none" vector-effect="none" points="702,656 700,656 " />
<polyline fill="none" vector-effect="none" points="700,656 698,657 " />
<polyline fill="none" vector-effect="none" points="698,657 696,658 " />
<polyline fill="none" vector-effect="none" points="696,658 695,658 " />
<polyline fill="none" vector-effect="none" points="695,658 692,659 " />
<polyline fill="none" vector-effect="none" points="692,659 688,661 " />
<polyline fill="none" vector-effect="none" points="688,661 687,662 " />
<polyline fill="none" vector-effect="none" points="687,662 686,664 " />
<polyline fill="none" vector-effect="none" points="686,664 682,668 " />
<polyline fill="none" vector-effect="none" points="682,668 680,671 " />
<polyline fill="none" vector-effect="none" points="680,671 677,674 " />
<polyline fill="none" vector-effect="none" points="677,674 674,677 " />
<polyline fill="none" vector-effect="none" points="674,677 671,682 " />
<polyline fill="none" vector-effect="none" points="671,682 670,683 " />
<polyline fill="none" vector-effect="none" points="670,683 668,684 " />
<polyline fill="none" vector-effect="none" points="668,684 667,685 " />
<polyline fill="none" vector-effect="none" points="667,685 665,686 " />
<polyline fill="none" vector-effect="none" points="665,686 663,687 " />
<polyline fill="none" vector-effect="none" points="663,687 662,687 " />
<polyline fill="none" vector-effect="none" points="662,687 660,689 " />
<polyline fill="none" vector-effect="none" points="660,689 659,690 " />
<polyline fill="none" vector-effect="none" points="659,690 656,693 " />
<polyline fill="none" vector-effect="none" points="656,693 654,696 " />
<polyline fill="none" vector-effect="none" points="654,696 654,698 " />
<polyline fill="none" vector-effect="none" points="654,698 653,700 " />
<polyline fill="none" vector-effect="none" points="653,700 652,701 " />
<polyline fill="none" vector-effect="none" points="652,701 651,703 " />
<polyline fill="none" vector-effect="none" points="651,703 650,704 " />
<polyline fill="none" vector-effect="none" points="650,704 648,706 " />
<polyline fill="none" vector-effect="none" points="648,706 647,707 " />
<polyline fill="none" vector-effect="none" points="647,707 646,709 " />
<polyline fill="none" vector-effect="none" points="646,709 645,711 " />
<polyline fill="none" vector-effect="none" points="645,711 645,712 " />
<polyline fill="none" vector-effect="none" points="645,712 644,714 " />
<polyline fill="none" vector-effect="none" points="644,714 643,715 " />
<polyline fill="none" vector-effect="none" points="643,715 639,717 " />
<polyline fill="none" vector-effect="none" points="639,717 637,720 " />
<polyline fill="none" vector-effect="none" points="637,720 635,722 " />
<polyline fill="none" vector-effect="none" points="635,722 634,724 " />
<polyline fill="none" vector-effect="none" points="634,724 633,726 " />
<polyline fill="none" vector-effect="none" points="633,726 632,727 " />
<polyline fill="none" vector-effect="none" points="632,727 631,729 " />
<polyline fill="none" vector-effect="none" points="631,729 629,732 " />
<polyline fill="none" vector-effect="none" points="629,732 627,735 " />
<polyline fill="none" vector-effect="none" points="627,735 625,739 " />
<polyline fill="none" vector-effect="none" points="625,739 621,743 " />
<polyline fill="none" vector-effect="none" points="621,743 620,746 " />
<polyline fill="none" vector-effect="none" points="620,746 619,749 " />
<polyline fill="none" vector-effect="none" points="619,749 615,755 " />
</g>
</g>
</svg>
