<?xml version="1.0" encoding="UTF-8" standalone="no"?>
<svg width="529.167mm" height="529.167mm"
 viewBox="0 0 1500 1500"
 xmlns="http://www.w3.org/2000/svg" xmlns:xlink="http://www.w3.org/1999/xlink"  version="1.2" baseProfile="tiny">
<title>Bizzare Labyrinth</title>
<desc>Time (seconds): 0
Iteration: 0
# Points: 16
f_b: 0.08
f_f: 0.07
f_a: 0.004
ar_clamp: 20
D: 1
sigma_l_j: 1
search_radius: 20
</desc>
<defs>
</defs>
<g fill="none" stroke="black" stroke-width="1" fill-rule="evenodd" stroke-linecap="square" stroke-linejoin="bevel" >

<g fill="none" stroke="#000000" stroke-opacity="1" stroke-width="1" stroke-linecap="square" stroke-linejoin="bevel" transform="matrix(1,0,0,1,0,0)"
font-family="Droid Sans" font-size="9.5" font-weight="400" font-style="normal" 
>
</g>

<g fill="none" stroke="#000000" stroke-opacity="1" stroke-width="1" stroke-linecap="square" stroke-linejoin="bevel" transform="matrix(1,0,0,1,0,0)"
font-family="Droid Sans" font-size="9.5" font-weight="400" font-style="normal" 
>
<polyline fill="none" vector-effect="none" points="750,894 788,858 " />
<polyline fill="none" vector-effect="none" points="788,858 825,823 " />
<polyline fill="none" vector-effect="none" points="825,823 859,787 " />
<polyline fill="none" vector-effect="none" points="859,787 894,750 " />
<polyline fill="none" vector-effect="none" points="894,750 860,712 " />
<polyline fill="none" vector-effect="none" points="860,712 825,674 " />
<polyline fill="none" vector-effect="none" points="825,674 787,639 " />
<polyline fill="none" vector-effect="none" points="787,639 750,605 " />
<polyline fill="none" vector-effect="none" points="750,605 713,640 " />
<polyline fill="none" vector-effect="none" points="713,640 676,674 " />
<polyline fill="none" vector-effect="none" points="676,674 640,712 " />
<polyline fill="none" vector-effect="none" points="640,712 604,749 " />
<polyline fill="none" vector-effect="none" points="604,749 639,787 " />
<polyline fill="none" vector-effect="none" points="639,787 674,825 " />
<polyline fill="none" vector-effect="none" points="674,825 712,859 " />
<polyline fill="none" vector-effect="none" points="712,859 750,894 " />
</g>
</g>
</svg>
